<?xml version="1.0" encoding="UTF-8" standalone="no"?>
<!-- Created with Inkscape (http://www.inkscape.org/) -->

<svg
   width="512"
   height="512"
   viewBox="0 0 135.46666 135.46667"
   version="1.1"
   id="svg1"
   xml:space="preserve"
   inkscape:version="1.4.2 (f4327f4, 2025-05-13)"
   sodipodi:docname="my_money_inkscape.svg"
   inkscape:export-filename="my_money_inkscape.svg"
   inkscape:export-xdpi="96"
   inkscape:export-ydpi="96"
   xmlns:inkscape="http://www.inkscape.org/namespaces/inkscape"
   xmlns:sodipodi="http://sodipodi.sourceforge.net/DTD/sodipodi-0.dtd"
   xmlns="http://www.w3.org/2000/svg"
   xmlns:svg="http://www.w3.org/2000/svg"><sodipodi:namedview
     id="namedview1"
     pagecolor="#ffffff"
     bordercolor="#000000"
     borderopacity="0.25"
     inkscape:showpageshadow="2"
     inkscape:pageopacity="0.0"
     inkscape:pagecheckerboard="0"
     inkscape:deskcolor="#d1d1d1"
     inkscape:document-units="px"
     inkscape:zoom="0.73701598"
     inkscape:cx="221.1621"
     inkscape:cy="288.32482"
     inkscape:window-width="1440"
     inkscape:window-height="829"
     inkscape:window-x="-8"
     inkscape:window-y="-8"
     inkscape:window-maximized="1"
     inkscape:current-layer="g4"
     showguides="true"
     showgrid="false"><inkscape:page
       x="0"
       y="0"
       width="135.46666"
       height="135.46667"
       id="page2"
       margin="0"
       bleed="0" /></sodipodi:namedview><defs
     id="defs1"><linearGradient
       id="swatch11"
       inkscape:swatch="solid"><stop
         style="stop-color:#1514d7;stop-opacity:0;"
         offset="0"
         id="stop11" /></linearGradient><clipPath
       clipPathUnits="userSpaceOnUse"
       id="clipPath12"><rect
         style="fill:#ffffff;fill-opacity:1;stroke:#fdf5ec;stroke-width:1.78693;stroke-opacity:1"
         id="rect13"
         width="133.74693"
         height="79.423843"
         x="2.680382"
         y="-24.227308"
         ry="17.362099"
         transform="rotate(135.44445)" /></clipPath><clipPath
       clipPathUnits="userSpaceOnUse"
       id="clipPath13"><rect
         style="fill:#ffffff;fill-opacity:1;stroke:#fdf5ec;stroke-width:1.78693;stroke-opacity:1"
         id="rect14"
         width="133.74693"
         height="79.423843"
         x="2.680382"
         y="-24.227308"
         ry="17.362099" /></clipPath><style
       type="text/css"
       id="style1">
   
    .fil0 {fill:black}
   
  </style><style
       type="text/css"
       id="style1-2">
   
    .fil0 {fill:black}
   
  </style><style
       type="text/css"
       id="style1-7">
   
    .fil0 {fill:black}
   
  </style><style
       type="text/css"
       id="style1-9">
   
    .fil0 {fill:black}
   
  </style></defs><g
     id="g4"
     transform="translate(-2.7923076)"
     inkscape:export-filename="..\My_TMM_App\Playstore_Screenshot\g4.png"
     inkscape:export-xdpi="96.298935"
     inkscape:export-ydpi="96.298935"><g
       id="g1"
       transform="matrix(0.91463716,0,0,0.91463716,-54.428737,-92.512032)"><g
         id="g14"
         transform="translate(66,129.96923)"
         style="stroke:none"><g
           id="g9"
           style="stroke:none"><rect
             style="fill:#11032a;fill-opacity:1;stroke:none;stroke-width:2.0887"
             id="rect1"
             width="147.64996"
             height="147.64996"
             x="-3.7160676"
             y="-28.267996"
             inkscape:export-filename="..\My_TMM_App\Playstore_Screenshot\rect1.png"
             inkscape:export-xdpi="96.298935"
             inkscape:export-ydpi="96.298935" /><ellipse
             style="fill:#4304a1;fill-opacity:1;stroke:none;stroke-width:0;stroke-dasharray:none;stroke-opacity:1"
             id="path10"
             cx="69.553848"
             cy="41.630764"
             rx="65.932442"
             ry="65.424744"
             clip-path="url(#clipPath13)" /><circle
             style="fill:#11032a;fill-opacity:1;stroke:none;stroke-width:1.57021"
             id="circle9"
             cx="-84.833893"
             cy="14.061066"
             r="58.604904"
             transform="rotate(-135.44445)"
             clip-path="url(#clipPath12)" /></g></g><path
         id="path1"
         style="opacity:1;fill:#2ecc71;fill-opacity:1;stroke:none;stroke-width:0;stroke-dasharray:none;stroke-opacity:1"
         d="m 81.495289,181.53779 c -0.214916,4.80383 2.068382,16.88476 7.097626,26.31328 3.610196,6.30394 8.812178,13.24011 16.884605,17.82801 -3.65267,-12.57676 -3.89051,-25.32072 3.39164,-33.09213 4.69657,-5.01212 10.54757,-7.89214 19.31366,-11.64625 0.0564,-12.59286 3.74255,-20.71537 14.62023,-31.27263 0.20646,-3.57209 1.64542,-7.54999 -2.97393,-14.10238 -3.37437,-4.54103 -9.73227,-7.9242 -14.90132,-9.29482 0,0 -4.33412,0.19636 -12.29825,2.98339 -29.45848,16.83061 -30.617424,40.73116 -31.134261,52.28353 z"
         sodipodi:nodetypes="sccscccccs" /><path
         id="path2"
         style="opacity:1;fill:#e74c3c;fill-opacity:1;stroke:none;stroke-width:0;stroke-dasharray:none;stroke-opacity:1"
         d="m 172.8383,138.14733 c -2.74566,-2.9126 -13.20273,-9.63541 -21.52856,-11.73993 -5.70011,-1.243 -12.88828,-4.58814 -19.97039,-1.88478 9.45945,4.83214 17.43248,14.56191 18.13809,23.86872 0.45508,6.00237 -5.04336,21.69402 -5.24559,22.8137 2.39369,1.96838 12.86132,12.14098 18.1122,23.91368 2.01652,2.19667 4.87994,4.42868 11.52559,4.38472 4.52294,-0.63274 7.93291,-2.13317 7.72664,-2.48332 0,0 5.26434,-2.22359 7.89514,-9.10803 5.84643,-29.22551 -10.05032,-42.76053 -16.65312,-49.76476 z"
         sodipodi:nodetypes="sccscccccs" /><path
         id="path3"
         style="opacity:1;fill:#f1c40f;fill-opacity:1;stroke:none;stroke-width:0;stroke-dasharray:none;stroke-opacity:1"
         d="m 163.41112,228.85528 c 7.32088,-4.41958 11.89497,-8.50134 18.29589,-16.24612 4.23084,-6.50676 6.31571,-10.86246 7.42418,-18.01037 -7.44187,7.7206 -15.53298,10.67779 -24.18314,8.04782 -5.57887,-1.6962 -13.27516,-5.85443 -23.615,-13.81928 -10.1732,2.18891 -19.37243,3.49555 -24.86435,7.0186 -4.7436,4.12251 -9.24475,7.34655 -10.24064,16.12005 0.002,8.78487 3.25271,12.09536 3.25271,12.09536 0,0 3.22189,5.9894 10.572,8.76312 10.54661,3.5705 17.96812,3.81384 23.97279,2.85168 6.63439,-1.06307 13.54425,-3.29449 19.38556,-6.82086 z"
         sodipodi:nodetypes="sccscccccss" /></g><g
       id="g2"
       transform="matrix(0.46193843,0,0,0.46193843,59.902261,79.624153)"
       inkscape:label="Wallet"><g
         id="a" /><g
         id="b" /><g
         id="c" /><g
         id="d" /><g
         id="e" /><g
         id="f" /><g
         id="g" /><g
         id="h" /><g
         id="i" /><g
         id="j" /><g
         id="k" /><g
         id="l" /><g
         id="m" /><g
         id="n" /><g
         id="o" /><g
         id="p" /><g
         id="q" /><g
         id="r" /><g
         id="s" /><g
         id="t" /><g
         id="u" /><g
         id="v" /><g
         id="w" /><g
         id="x" /><g
         id="y"><path
           d="m 8.62,21.45 20.2,6.25 8.31,-6.25 v -3.59 c 0,-1.99 -1.6,-3.59 -3.59,-3.59 H 8.59 C 6.6,14.27 5,15.87 5,17.86 v 1.61 l 2.39,3.62 z"
           fill="#75cdf8"
           fill-rule="evenodd"
           id="path1-0" /><path
           d="m 5,17.86 v 28.23 c 0,2.02 1.63,3.65 3.65,3.65 H 28.07 L 44.34,26.29 V 25.1 c 0,-2.02 -1.63,-3.65 -3.65,-3.65 H 8.62 C 6.6,21.45 5,19.85 5,17.86 Z"
           fill="#8fd7f8"
           fill-rule="evenodd"
           id="path2-9" /><path
           d="m 44.34,25.1 c 0,-2.02 -1.63,-3.65 -3.65,-3.65 h -4 c 2.02,0 3.65,1.63 3.65,3.65 v 6.05 l 4,-3.22 z"
           fill="#75cdf8"
           fill-rule="evenodd"
           id="path3-4" /><path
           d="m 27.84,29.35 c -1.88,0 -3.4,1.52 -3.4,3.4 0,1.88 1.52,3.4 3.4,3.4 v 6.79 c -1.88,0 -3.4,1.52 -3.4,3.4 0,1.88 1.52,3.4 3.4,3.4 h 15.92 c 0.79,0 1.51,-0.27 2.09,-0.71 L 44.35,34.19 38.94,29.35 H 27.85 Z"
           fill="#8996a8"
           fill-rule="evenodd"
           id="path4" /><path
           d="m 36.93,42.94 h -9.09 c -1.88,0 -3.4,-1.52 -3.4,-3.4 0,-1.88 1.52,-3.4 3.4,-3.4 h 7.8 z"
           fill="#7a8594"
           fill-rule="evenodd"
           id="path5" /><path
           d="m 58.77,37.49 c 0,6.41 -5.2,11.61 -11.61,11.61 -6.41,0 -11.61,-5.2 -11.61,-11.61 0,-6.41 5.2,-11.61 11.61,-11.61 6.41,0 11.61,5.2 11.61,11.61 z"
           fill="#e8a3c1"
           fill-rule="evenodd"
           id="path6" /><path
           d="m 52.02,37.49 c 0,2.68 -2.18,4.86 -4.86,4.86 -2.68,0 -4.86,-2.18 -4.86,-4.86 0,-2.68 2.18,-4.86 4.86,-4.86 2.68,0 4.86,2.17 4.86,4.86 z"
           fill="#8996a8"
           fill-rule="evenodd"
           id="path7" /><path
           d="m 47.16,25.89 c -0.52,0 -1.04,0.04 -1.56,0.11 5.74,0.79 10.02,5.7 10.02,11.5 0,5.8 -4.29,10.71 -10.04,11.5 0.52,0.07 1.05,0.11 1.58,0.11 6.41,0 11.61,-5.2 11.61,-11.61 0,-6.41 -5.2,-11.61 -11.61,-11.61 z"
           fill="#e38fb6"
           fill-rule="evenodd"
           id="path8" /><path
           d="m 37.13,21.45 v -3.59 c 0,-1.99 -1.6,-3.59 -3.59,-3.59 h -4.02 c 1.99,0 3.59,1.6 3.59,3.59 v 3.59 z"
           fill="#6bbdf5"
           fill-rule="evenodd"
           id="path9-8" /><path
           d="m 47.39,24.88 c -0.7,0 -1.38,0.1 -2.05,0.21 0,-2.56 -2.09,-4.64 -4.65,-4.64 h -2.56 v -2.59 c 0,-2.53 -2.06,-4.59 -4.59,-4.59 H 8.59 C 6.06,13.27 4,15.33 4,17.86 v 28.23 c 0,2.56 2.09,4.65 4.65,4.65 h 35.34 c 0.85,0 1.65,-0.28 2.36,-0.74 0.35,0.03 0.69,0.11 1.04,0.11 C 54.46,50.11 60,44.35 60,37.5 60,30.65 54.36,24.89 47.39,24.89 Z m 8.14,19.34 -3.36,-3.36 c 0.49,-0.69 0.83,-1.5 0.98,-2.37 h 4.75 c -0.21,2.17 -1.05,4.13 -2.37,5.73 z m -14.86,1.41 3.36,-3.36 c 0.69,0.49 1.5,0.83 2.37,0.98 V 48 c -2.17,-0.21 -4.13,-1.05 -5.73,-2.37 z m -3.78,-7.14 h 4.75 c 0.15,0.87 0.49,1.67 0.98,2.37 l -3.36,3.36 C 37.94,42.63 37.1,40.66 36.89,38.49 Z m -11.21,1.05 c 0,-1.32 1.08,-2.4 2.4,-2.4 h 6.74 c 0,0.12 -0.04,0.23 -0.04,0.35 0,1.57 0.32,3.06 0.85,4.45 h -7.56 c -1.32,0 -2.4,-1.08 -2.4,-2.4 z m 0,-6.8 c 0,-1.32 1.08,-2.4 2.4,-2.4 h 8.95 c -0.98,1.42 -1.67,3.04 -2,4.8 h -6.95 c -1.32,0 -2.4,-1.08 -2.4,-2.4 z M 46.4,26.98 v 4.75 c -0.87,0.15 -1.67,0.49 -2.37,0.98 l -3.36,-3.36 c 1.59,-1.32 3.56,-2.16 5.73,-2.37 z m 1,14.37 c -2.13,0 -3.86,-1.73 -3.86,-3.86 0,-2.13 1.73,-3.86 3.86,-3.86 2.13,0 3.86,1.73 3.86,3.86 0,2.13 -1.73,3.86 -3.86,3.86 z M 36.89,36.49 c 0.21,-2.17 1.05,-4.13 2.37,-5.73 l 3.36,3.36 c -0.49,0.69 -0.83,1.5 -0.98,2.37 z m 13.88,-3.78 c -0.69,-0.49 -1.5,-0.83 -2.37,-0.98 v -4.75 c 2.17,0.21 4.13,1.05 5.73,2.37 z M 48.4,43.25 c 0.87,-0.15 1.67,-0.49 2.37,-0.98 l 3.36,3.36 C 52.54,46.95 50.57,47.79 48.4,48 Z m 4.76,-6.76 c -0.15,-0.87 -0.49,-1.67 -0.98,-2.37 l 3.36,-3.36 c 1.32,1.59 2.16,3.56 2.37,5.72 H 53.16 Z M 8.59,15.26 h 24.95 c 1.43,0 2.59,1.16 2.59,2.59 v 2.59 H 8.62 C 7.15,20.44 6,19.3 6,17.85 6,16.4 7.16,15.26 8.59,15.26 Z M 6,46.08 V 21.53 c 0.75,0.53 1.63,0.91 2.62,0.91 h 32.07 c 1.46,0 2.65,1.19 2.65,2.65 v 0.51 c -1.72,0.59 -3.28,1.51 -4.58,2.74 H 28.07 c -2.43,0 -4.4,1.97 -4.4,4.4 0,1.4 0.7,2.59 1.72,3.4 -1.02,0.81 -1.72,2 -1.72,3.4 0,1.4 0.7,2.59 1.72,3.4 -1.02,0.81 -1.72,2 -1.72,3.4 0,0.9 0.34,1.7 0.81,2.4 H 8.65 C 7.19,48.74 6,47.55 6,46.09 Z m 22.07,2.65 c -1.32,0 -2.4,-1.08 -2.4,-2.4 0,-1.32 1.07,-2.4 2.4,-2.4 h 8.54 c 1.26,2.11 2.67,3.54 5.18,4.8 z"
           id="path10-8" /><path
           d="m 9.48,43.92 c -0.27,0 -0.52,0.11 -0.71,0.29 -0.19,0.19 -0.29,0.44 -0.29,0.71 0,0.27 0.11,0.52 0.29,0.71 0.19,0.19 0.44,0.29 0.71,0.29 0.27,0 0.52,-0.11 0.71,-0.29 0.19,-0.19 0.29,-0.44 0.29,-0.71 0,-0.27 -0.11,-0.52 -0.29,-0.71 C 10,44.02 9.75,43.92 9.48,43.92 Z"
           id="path11" /><path
           d="m 9.48,39.77 c -0.27,0 -0.52,0.11 -0.71,0.29 -0.19,0.19 -0.29,0.44 -0.29,0.71 0,0.27 0.11,0.52 0.29,0.71 0.19,0.19 0.44,0.29 0.71,0.29 0.27,0 0.52,-0.1 0.71,-0.29 0.19,-0.19 0.29,-0.44 0.29,-0.71 0,-0.27 -0.11,-0.52 -0.29,-0.71 C 10,39.87 9.75,39.77 9.48,39.77 Z"
           id="path12" /><path
           d="m 9.48,35.62 c -0.27,0 -0.52,0.1 -0.71,0.29 -0.19,0.19 -0.29,0.44 -0.29,0.71 0,0.27 0.11,0.52 0.29,0.71 0.19,0.19 0.44,0.29 0.71,0.29 0.27,0 0.52,-0.11 0.71,-0.29 0.19,-0.19 0.29,-0.44 0.29,-0.71 0,-0.27 -0.11,-0.52 -0.29,-0.71 C 10,35.72 9.75,35.62 9.48,35.62 Z"
           id="path13" /></g><g
         id="a`" /><g
         id="aa" /><g
         id="ab" /><g
         id="ac" /><g
         id="ad" /><g
         id="ae" /><g
         id="af" /><g
         id="ag" /><g
         id="ah" /><g
         id="ai" /><g
         id="aj" /><g
         id="ak" /><g
         id="al" /><g
         id="am" /><g
         id="an" /><g
         id="ao" /><g
         id="ap" /><g
         id="aq" /><g
         id="ar" /><g
         id="as" /><g
         id="at" /><g
         id="au" /><g
         id="av" /><g
         id="aw" /><g
         id="ax" /></g><path
       d="m 48.472909,111.11249 1.887989,-0.18355 q 0.170443,0.95055 0.688329,1.39632 0.524442,0.44578 1.409437,0.44578 0.937439,0 1.409436,-0.39334 0.478553,-0.39988 0.478553,-0.93088 0,-0.34089 -0.203221,-0.57688 -0.196666,-0.24256 -0.694885,-0.41956 -0.340887,-0.118 -1.553658,-0.41955 -1.560213,-0.38678 -2.189543,-0.95055 -0.884995,-0.79322 -0.884995,-1.93388 0,-0.73422 0.412998,-1.3701 0.419553,-0.64244 1.19966,-0.97677 0.786662,-0.33434 1.894544,-0.33434 1.809323,0 2.72054,0.79322 0.917773,0.79322 0.963661,2.11743 l -1.940433,0.0852 q -0.124555,-0.74078 -0.537552,-1.062 -0.406443,-0.32777 -1.225882,-0.32777 -0.845662,0 -1.324215,0.34744 -0.308109,0.22289 -0.308109,0.59655 0,0.34089 0.288443,0.58344 0.367109,0.30811 1.7831,0.64244 1.415992,0.33433 2.091211,0.69489 0.681773,0.354 1.061993,0.97677 0.386776,0.61622 0.386776,1.52744 0,0.82599 -0.458886,1.5471 -0.458887,0.7211 -1.297993,1.0751 -0.839106,0.34744 -2.09121,0.34744 -1.822434,0 -2.799206,-0.8391 -0.976772,-0.84566 -1.166882,-2.45832 z m 18.112895,3.12698 h -2.110877 l -0.839106,-2.18299 h -3.841533 l -0.793218,2.18299 h -2.058433 l 3.743201,-9.61039 h 2.051877 z m -3.572757,-3.8022 -1.324215,-3.5662 -1.297992,3.5662 z m 6.057298,3.8022 -3.435091,-9.61039 h 2.104321 l 2.432097,7.11274 2.353431,-7.11274 h 2.058433 l -3.441647,9.61039 z m 6.444073,0 v -9.61039 h 1.940433 v 9.61039 z m 3.808757,0 v -9.61039 h 1.887989 l 3.933311,6.41785 v -6.41785 h 1.802767 v 9.61039 h -1.946989 l -3.874311,-6.26707 v 6.26707 z m 14.146807,-3.53342 v -1.61922 h 4.18242 v 3.82843 q -0.609663,0.58999 -1.76999,1.04232 -1.153771,0.44578 -2.34032,0.44578 -1.507769,0 -2.628762,-0.62933 -1.120994,-0.63589 -1.684768,-1.80932 -0.563775,-1.18 -0.563775,-2.56321 0,-1.50121 0.62933,-2.6681 0.62933,-1.16688 1.8421,-1.78965 0.924328,-0.47856 2.300987,-0.47856 1.789656,0 2.792651,0.75389 1.009549,0.74733 1.297992,2.07154 l -1.927322,0.36056 q -0.203221,-0.708 -0.766996,-1.11444 -0.557219,-0.413 -1.396325,-0.413 -1.27177,0 -2.025655,0.80633 -0.747329,0.80633 -0.747329,2.39276 0,1.71099 0.76044,2.56977 0.76044,0.85221 1.992878,0.85221 0.609663,0 1.219326,-0.236 0.616218,-0.24255 1.055438,-0.58344 v -1.21932 z"
       id="text1"
       style="font-weight:bold;font-size:13.4257px;font-family:Arial;-inkscape-font-specification:'Arial, Bold';fill:#2c3e50;fill-opacity:1;stroke-width:0"
       aria-label="SAVING"
       inkscape:label="Saving" /><g
       id="g7"
       transform="matrix(0.05629787,0,0,0.04291149,80.911615,35.793293)"
       inkscape:label="basket">
	<path
   class="st0"
   d="m 491.615,95.734 c -5.06,-6.18 -12.634,-9.772 -20.622,-9.772 H 123.664 L 111.829,45.305 v 0.008 C 106.396,27.137 91.488,13.366 72.946,9.393 L 30.48,0.3 c -7.183,-1.545 -14.263,3.039 -15.809,10.23 -1.536,7.19 3.04,14.271 10.24,15.807 l 42.449,9.102 c 9.032,1.935 16.3,8.642 18.949,17.506 l 77.597,266.547 c -1.748,0.815 -3.438,1.698 -5.068,2.674 -8.362,4.984 -15.07,11.98 -19.568,20.147 -4.305,7.76 -6.589,16.555 -6.809,25.631 h -0.034 v 1.383 h 0.034 c 0.17,7.09 1.681,13.89 4.304,20.096 4.202,9.925 11.181,18.321 19.976,24.264 8.788,5.951 19.476,9.44 30.853,9.432 h 249.568 c 7.361,0 13.32,-5.96 13.32,-13.312 0,-7.352 -5.96,-13.312 -13.32,-13.312 l -249.568,-0.008 c -3.974,0 -7.692,-0.798 -11.105,-2.233 -5.102,-2.156 -9.492,-5.79 -12.565,-10.358 -2.954,-4.39 -4.703,-9.56 -4.839,-15.23 0.152,-6.767 2.309,-12.642 6.095,-17.337 1.961,-2.42 4.38,-4.542 7.318,-6.3 2.904,-1.732 6.326,-3.107 10.341,-3.973 L 433.68,300.228 c 16.386,-2.674 29.426,-15.205 32.737,-31.481 l 30.682,-150.839 v -0.016 c 0.356,-1.749 0.527,-3.532 0.527,-5.298 0,-6.095 -2.09,-12.054 -6.011,-16.86 z m -51.296,167.708 c -1.104,5.434 -5.451,9.611 -10.918,10.494 l -239.669,39.02 -58.325,-200.361 h 339.586 0.009 z"
   id="path1-9" />
	<path
   class="st0"
   d="m 218.411,444.786 c -5.85,-3.957 -12.972,-6.291 -20.546,-6.282 -5.052,0 -9.916,1.026 -14.314,2.895 -6.605,2.793 -12.191,7.436 -16.156,13.303 -3.964,5.85 -6.291,12.973 -6.274,20.546 -0.008,5.043 1.019,9.908 2.887,14.306 2.801,6.614 7.436,12.2 13.295,16.156 5.858,3.974 12.989,6.292 20.562,6.292 5.043,0 9.9,-1.028 14.297,-2.895 6.614,-2.793 12.2,-7.446 16.165,-13.304 3.956,-5.85 6.282,-12.981 6.282,-20.554 0,-5.042 -1.036,-9.898 -2.895,-14.305 -2.801,-6.616 -7.445,-12.202 -13.303,-16.158 z m -6.894,36.226 c -1.12,2.649 -3.014,4.933 -5.382,6.529 -2.378,1.596 -5.162,2.521 -8.27,2.53 -2.08,-0.009 -4.007,-0.416 -5.765,-1.172 -2.64,-1.103 -4.933,-3.005 -6.529,-5.365 -1.596,-2.386 -2.521,-5.179 -2.53,-8.287 0.009,-2.072 0.424,-3.99 1.163,-5.764 1.112,-2.64 3.014,-4.924 5.382,-6.528 2.378,-1.596 5.171,-2.514 8.278,-2.522 2.072,0 3.99,0.417 5.756,1.163 2.649,1.112 4.924,3.006 6.52,5.383 1.605,2.377 2.53,5.162 2.53,8.268 0.002,2.08 -0.414,3.999 -1.153,5.765 z"
   id="path2-4" />
	<path
   class="st0"
   d="m 419.943,444.786 c -5.858,-3.957 -12.98,-6.291 -20.553,-6.282 -5.043,0 -9.908,1.026 -14.306,2.895 -6.613,2.793 -12.2,7.436 -16.164,13.303 -3.956,5.85 -6.282,12.973 -6.282,20.546 0,5.043 1.036,9.908 2.895,14.306 2.793,6.614 7.446,12.2 13.304,16.165 5.85,3.965 12.981,6.283 20.554,6.283 5.042,0 9.907,-1.028 14.305,-2.895 6.605,-2.793 12.191,-7.446 16.156,-13.304 3.964,-5.85 6.29,-12.981 6.282,-20.554 0,-5.042 -1.027,-9.898 -2.895,-14.305 -2.803,-6.616 -7.438,-12.202 -13.296,-16.158 z m -6.902,36.226 c -1.113,2.649 -3.014,4.933 -5.374,6.529 -2.377,1.596 -5.179,2.521 -8.277,2.53 -2.08,-0.009 -3.999,-0.416 -5.765,-1.172 -2.649,-1.103 -4.924,-3.005 -6.52,-5.365 -1.613,-2.386 -2.53,-5.179 -2.53,-8.287 0,-2.072 0.408,-3.99 1.155,-5.764 1.12,-2.64 3.013,-4.924 5.382,-6.528 2.377,-1.596 5.17,-2.514 8.278,-2.522 2.08,0 3.998,0.417 5.764,1.163 2.641,1.112 4.925,3.006 6.52,5.383 1.596,2.377 2.522,5.162 2.531,8.268 -10e-4,2.08 -0.417,3.999 -1.164,5.765 z"
   id="path3-8" />
	<path
   class="st0"
   d="m 209.718,142.021 c -2.173,-7.48 -10.001,-11.768 -17.481,-9.586 -7.479,2.182 -11.758,10.01 -9.584,17.481 l 36.523,125.055 c 2.19,7.471 10.018,11.767 17.489,9.577 7.471,-2.174 11.767,-10.01 9.577,-17.489 z"
   id="path4-8" />
	<path
   class="st0"
   d="m 271.388,141.783 c -2.173,-7.479 -10.001,-11.767 -17.48,-9.593 -7.48,2.19 -11.767,10.018 -9.585,17.489 l 33.874,115.988 c 2.19,7.48 10.018,11.767 17.489,9.585 7.471,-2.182 11.767,-10.009 9.577,-17.489 z"
   id="path5-2" />
	<path
   class="st0"
   d="m 333.066,141.546 c -2.182,-7.48 -10.01,-11.768 -17.48,-9.577 -7.48,2.174 -11.767,10.01 -9.585,17.48 l 31.302,107.193 c 2.182,7.48 10.018,11.767 17.489,9.586 7.471,-2.182 11.767,-10.019 9.576,-17.49 z"
   id="path6-4" />
	<path
   class="st0"
   d="m 394.728,141.298 c -2.173,-7.479 -10.009,-11.758 -17.489,-9.584 -7.471,2.191 -11.758,10.018 -9.577,17.489 l 28.56,97.812 c 2.191,7.48 10.018,11.767 17.489,9.585 7.471,-2.19 11.767,-10.009 9.585,-17.489 z"
   id="path7-5" />
</g><path
       d="m 82.544213,65.921581 v -6.580094 h 3.350712 v 1.11314 h -2.438283 v 1.458753 h 2.268744 v 1.108651 h -2.268744 v 1.790899 h 2.524594 v 1.108651 z m 3.751441,0 1.544348,-3.433678 -1.399469,-3.146416 h 1.066555 l 0.906267,2.114068 0.887768,-2.114068 h 1.057305 l -1.405629,3.19579 1.544348,3.384304 h -1.100464 l -1.001828,-2.275653 -1.004903,2.275653 z m 4.670035,0 v -6.580094 h 1.464204 q 0.832284,0 1.085047,0.09875 0.388399,0.148119 0.650421,0.646339 0.262014,0.493732 0.262014,1.279214 0,0.605943 -0.151045,1.018882 -0.151045,0.412939 -0.385316,0.650828 -0.231188,0.2334 -0.471626,0.309705 -0.326748,0.09426 -0.946344,0.09426 h -0.594928 v 2.482122 z m 0.912427,-5.466954 v 1.867204 h 0.499376 q 0.539444,0 0.721306,-0.10324 0.181871,-0.103239 0.283598,-0.323169 0.104802,-0.219934 0.104802,-0.511685 0,-0.359077 -0.144878,-0.592478 -0.144878,-0.233401 -0.366816,-0.29175 -0.163378,-0.04489 -0.65658,-0.04489 z m 3.298315,5.466954 v -6.580094 h 3.350708 v 1.11314 h -2.438281 v 1.458753 h 2.268744 v 1.108651 h -2.268744 v 1.790899 h 2.524591 v 1.108651 z m 4.219988,0 v -6.580094 h 0.887761 l 1.84952,4.394211 v -4.394211 h 0.8477 v 6.580094 h -0.91551 l -1.82178,-4.290975 v 4.290975 z m 4.318621,-2.140999 0.88777,-0.125677 q 0.0801,0.650828 0.32367,0.956044 0.2466,0.305215 0.66274,0.305215 0.4408,0 0.66275,-0.269308 0.22502,-0.273795 0.22502,-0.637362 0,-0.2334 -0.0956,-0.394984 -0.0925,-0.166074 -0.32675,-0.287263 -0.16029,-0.08079 -0.73056,-0.287262 -0.73363,-0.26482 -1.02957,-0.650828 -0.41614,-0.543105 -0.41614,-1.324099 0,-0.502708 0.19421,-0.938089 0.19728,-0.43987 0.5641,-0.668782 0.36991,-0.228911 0.89085,-0.228911 0.85078,0 1.27925,0.543105 0.43156,0.543103 0.45313,1.449774 l -0.91242,0.05835 q -0.0585,-0.507197 -0.25277,-0.727132 -0.19112,-0.224424 -0.57644,-0.224424 -0.39764,0 -0.62267,0.237889 -0.14488,0.152608 -0.14488,0.408451 0,0.2334 0.13564,0.399474 0.17262,0.210957 0.83844,0.43987 0.66583,0.228912 0.98333,0.475777 0.32059,0.242378 0.49937,0.668783 0.18187,0.421915 0.18187,1.045812 0,0.565547 -0.21578,1.059278 -0.21577,0.493732 -0.61034,0.736109 -0.39456,0.23789 -0.98333,0.23789 -0.85694,0 -1.31624,-0.574525 -0.45929,-0.579012 -0.54869,-1.683175 z m 4.44193,2.140999 v -6.580094 h 3.35071 v 1.11314 h -2.43828 v 1.458753 h 2.26874 v 1.108651 h -2.26874 v 1.790899 h 2.52459 v 1.108651 z m 3.97955,-2.140999 0.88777,-0.125677 q 0.0801,0.650828 0.32367,0.956044 0.2466,0.305215 0.66274,0.305215 0.44081,0 0.66274,-0.269308 0.22503,-0.273795 0.22503,-0.637362 0,-0.2334 -0.0956,-0.394984 -0.0925,-0.166074 -0.32675,-0.287263 -0.16029,-0.08079 -0.73056,-0.287262 -0.73364,-0.26482 -1.02956,-0.650828 -0.41614,-0.543105 -0.41614,-1.324099 0,-0.502708 0.19419,-0.938089 0.19729,-0.43987 0.5641,-0.668782 0.36991,-0.228911 0.89086,-0.228911 0.85078,0 1.27925,0.543105 0.43155,0.543103 0.45313,1.449774 l -0.91243,0.05835 q -0.0585,-0.507197 -0.25277,-0.727132 -0.19111,-0.224424 -0.57643,-0.224424 -0.39765,0 -0.62267,0.237889 -0.14487,0.152608 -0.14487,0.408451 0,0.2334 0.13562,0.399474 0.17262,0.210957 0.83845,0.43987 0.66582,0.228912 0.98333,0.475777 0.32058,0.242378 0.49937,0.668783 0.18187,0.421915 0.18187,1.045812 0,0.565547 -0.21578,1.059278 -0.21578,0.493732 -0.61034,0.736109 -0.39456,0.23789 -0.98333,0.23789 -0.85695,0 -1.31624,-0.574525 -0.4593,-0.579012 -0.54869,-1.683175 z"
       id="text17"
       style="font-weight:bold;font-size:7.90316px;font-family:Arial;-inkscape-font-specification:'Arial, Bold';fill:#ffffff;stroke-width:0"
       aria-label="EXPENSES"
       inkscape:label="Expenses" /><g
       id="g3"
       transform="matrix(1.0801836,0,0,0.73910393,-192.21504,30.882018)"
       style="fill:#710000;fill-opacity:1"
       inkscape:label="graph"><path
         style="fill:#0f4c52;fill-opacity:1"
         d="m 200.1133,41.735614 v -0.741136 h 1.11298 1.11298 v -3.755087 -3.755087 h 3.37604 3.37604 v 3.755087 3.755087 h 1.11298 1.11298 V 35.015984 29.03749 h 3.33894 3.33895 v 5.978494 5.978494 h 1.11298 1.11298 v -4.496223 -4.496223 h 3.33894 3.33894 v 4.496223 4.496223 h 1.11298 1.11298 v -7.460765 -7.460766 h 3.37604 3.37604 v 7.460766 7.460765 h 1.11298 1.11298 v 0.741136 0.741135 H 219.10817 200.1133 Z m 1.1308,-11.969783 -0.75872,-0.506961 5.8055,-3.85364 c 3.19303,-2.119501 6.38161,-4.231365 7.08573,-4.693029 l 1.28022,-0.839389 4.45133,2.963836 4.45132,2.963837 4.43368,-2.940866 c 2.43852,-1.617477 4.86774,-3.223532 5.39826,-3.569013 l 0.96458,-0.628147 -2.6155,-4.34e-4 -2.61551,-4.34e-4 v -0.741136 -0.741136 h 4.48902 4.48902 v 2.964543 2.964543 h -1.11298 -1.11298 V 21.391567 19.67473 l -5.39795,3.582431 c -2.96888,1.970336 -5.74046,3.804346 -6.15908,4.075577 l -0.76111,0.493147 -4.45137,-2.963861 -4.45136,-2.963862 -5.50923,3.65649 c -3.03008,2.01107 -5.87709,3.895362 -6.32669,4.187315 l -0.81745,0.530825 z"
         id="path14" /></g><path
       d="m 51.027434,42.449608 v -2.437054 q -1.140006,-0.325716 -1.675111,-0.982964 -0.529289,-0.663065 -0.529289,-1.605314 0,-0.953883 0.599085,-1.599499 0.604901,-0.651432 1.605315,-0.75031 v -0.575819 h 0.843372 v 0.575819 q 0.9248,0.110511 1.471538,0.633983 0.546738,0.517656 0.697963,1.39011 l -1.471538,0.191939 q -0.133777,-0.68633 -0.697963,-0.930617 v 2.274196 q 1.395925,0.378063 1.901948,0.982964 0.506024,0.599085 0.506024,1.541335 0,1.05276 -0.6398,1.773989 -0.633983,0.721228 -1.768172,0.884086 v 1.087659 h -0.843372 v -1.058577 q -1.00623,-0.122144 -1.634397,-0.75031 -0.628166,-0.628167 -0.802657,-1.773989 l 1.518069,-0.162858 q 0.09306,0.465308 0.348982,0.802657 0.25592,0.337349 0.570003,0.488574 z m 0,-6.107175 q -0.343165,0.116327 -0.546738,0.395512 -0.203572,0.279186 -0.203572,0.616534 0,0.308267 0.186123,0.57582 0.186124,0.261736 0.564187,0.424594 z m 0.843372,6.188604 q 0.436226,-0.08143 0.709595,-0.401329 0.273369,-0.325716 0.273369,-0.761942 0,-0.389696 -0.232654,-0.668881 -0.226838,-0.285002 -0.75031,-0.436227 z"
       id="text4"
       style="font-weight:bold;font-size:11.9119px;font-family:Arial;-inkscape-font-specification:'Arial, Bold';fill:#f4511e;fill-opacity:1;stroke-width:0"
       aria-label="$"
       inkscape:label="Dollar" /><path
       d="m 44.929865,44.035948 2.054707,-8.581092 h 1.194335 l -2.077349,8.581092 z"
       id="text3"
       style="font-weight:bold;font-size:11.5924px;font-family:Arial;-inkscape-font-specification:'Arial, Bold';fill:#0a520d;fill-opacity:1;stroke-width:0"
       aria-label="/"
       inkscape:label="slash" /><path
       d="m 44.185286,35.067755 -0.586207,1.295517 h -1.342413 q 0.09965,0.117238 0.193448,0.304827 0.09379,0.181724 0.123104,0.36931 h 1.612068 l -0.586207,1.295516 h -1.025861 q -0.07035,0.422068 -0.293103,0.767931 -0.216896,0.339999 -0.545172,0.592068 -0.328276,0.252069 -0.744482,0.410344 -0.416207,0.152413 -0.879309,0.193448 l 3.188961,3.364825 h -2.07517 l -2.942756,-3.271032 v -1.295515 h 0.867585 q 0.164139,0 0.416207,-0.02345 0.252069,-0.02345 0.498276,-0.09965 0.252068,-0.08206 0.457241,-0.22862 0.205172,-0.152414 0.281379,-0.410344 h -2.813792 l 0.586207,-1.295517 h 2.221723 q -0.07035,-0.234482 -0.257931,-0.36931 -0.187586,-0.134827 -0.451379,-0.19931 -0.257931,-0.07035 -0.580345,-0.08793 -0.322413,-0.01759 -0.668275,-0.01759 h -0.85 l 0.586207,-1.295516 z"
       id="text2"
       style="font-weight:bold;font-size:9.87777px;font-family:Arial;-inkscape-font-specification:'Arial, Bold';fill:#f4511e;fill-opacity:1;stroke-width:0"
       aria-label="₹"
       inkscape:label="Rupee" /><path
       d="m 23.291777,72.157532 v -7.070709 h 1.427647 v 7.070709 z m 2.802239,0 v -7.070709 h 1.389061 l 2.893878,4.721844 v -4.721844 h 1.326361 v 7.070709 h -1.43247 l -2.85047,-4.610913 v 4.610913 z m 11.643036,-2.599667 1.384238,0.438904 q -0.318326,1.157552 -1.061088,1.721858 -0.737939,0.559483 -1.876198,0.559483 -1.408354,0 -2.315102,-0.959803 -0.906749,-0.964626 -0.906749,-2.633429 0,-1.765266 0.911572,-2.739538 0.911571,-0.979095 2.397095,-0.979095 1.297422,0 2.107708,0.766877 0.482313,0.453375 0.72347,1.302246 l -1.413177,0.337619 q -0.125402,-0.549837 -0.525722,-0.868164 -0.395496,-0.318326 -0.964626,-0.318326 -0.78617,0 -1.278129,0.564306 -0.487136,0.564306 -0.487136,1.827966 0,1.34083 0.482313,1.90996 0.482313,0.569129 1.254014,0.569129 0.569129,0 0.979095,-0.361735 0.409966,-0.361734 0.588422,-1.138258 z m 2.319926,-0.892279 q 0,-1.080382 0.32315,-1.813497 0.241157,-0.540191 0.655946,-0.96945 0.419612,-0.429258 0.916395,-0.636653 0.660768,-0.279741 1.524109,-0.279741 1.562694,0 2.498381,0.969449 0.94051,0.969449 0.94051,2.69613 0,1.712211 -0.930864,2.68166 -0.930864,0.964626 -2.488735,0.964626 -1.577163,0 -2.508027,-0.959803 -0.930865,-0.964626 -0.930865,-2.652721 z m 1.471055,-0.04823 q 0,1.20096 0.55466,1.823143 0.55466,0.617361 1.408354,0.617361 0.853694,0 1.398708,-0.612537 0.549837,-0.617361 0.549837,-1.847259 0,-1.215429 -0.535368,-1.813497 -0.530544,-0.598068 -1.413177,-0.598068 -0.882633,0 -1.422823,0.607714 -0.540191,0.602891 -0.540191,1.823143 z m 6.482285,3.540178 v -7.070709 h 2.136647 l 1.282953,4.82313 1.268483,-4.82313 h 2.14147 v 7.070709 H 53.51351 V 66.59164 l -1.403531,5.565892 H 50.735387 L 49.336679,66.59164 v 5.565892 z m 8.247555,0 v -7.070709 h 5.242742 v 1.196136 h -3.815096 v 1.567518 h 3.549824 v 1.191313 h -3.549824 v 1.924429 h 3.950144 v 1.191313 z"
       id="text18"
       style="font-weight:bold;font-size:9.87777px;font-family:Arial;-inkscape-font-specification:'Arial, Bold';fill:#ffffff;stroke-width:0"
       aria-label="INCOME"
       inkscape:label="Income" /><path
       style="font-weight:bold;font-size:9.87777px;font-family:Arial;-inkscape-font-specification:'Arial, Bold';fill:#a0892c;stroke-width:0"
       d="m 30.095247,110.92414 1.905771,1.58462 q 0.565866,0.47053 0.787744,0.73665 0.228766,0.2664 0.279347,0.5588 0.05382,0.2951 -0.07992,0.60296 -0.130083,0.30544 -0.47563,0.53514 -0.374632,0.24903 -0.869554,0.30554 -0.491675,0.0592 -0.957027,-0.0937 0.293934,0.45665 0.186187,0.87862 -0.107747,0.42198 -0.56968,0.72905 -0.363726,0.24178 -0.862118,0.34438 -0.491493,0.10288 -0.962248,0.0217 -0.463855,-0.0809 -0.894894,-0.36859 -0.269757,-0.18076 -1.197387,-0.9412 l -1.622822,-1.34937 z m 0.07516,1.39038 -1.233026,0.81965 0.630914,0.5246 q 0.562629,0.46781 0.717406,0.5693 0.279894,0.18375 0.576135,0.19606 0.30314,0.0126 0.561385,-0.15906 0.247329,-0.16442 0.276515,-0.36873 0.03611,-0.20402 -0.171853,-0.42588 -0.124915,-0.13107 -0.804608,-0.69624 z m -2.120515,1.4096 -1.4258,0.94779 0.891091,0.74093 q 0.520344,0.43267 0.692915,0.52718 0.258296,0.14946 0.558947,0.14911 0.307541,-6e-5 0.591249,-0.18865 0.240056,-0.15958 0.303302,-0.35733 0.06323,-0.19776 -0.05878,-0.41349 -0.118753,-0.21302 -0.775686,-0.75926 z m 4.578081,1.48011 1.087424,0.72304 -1.528701,2.65291 3.354392,-1.43899 1.058331,0.70369 -4.687973,1.85651 -0.845406,0.3382 q -0.437058,0.16198 -0.720087,0.21225 -0.279388,0.0526 -0.536985,0.0274 -0.257223,-0.0202 -0.54527,-0.12896 -0.284416,-0.10639 -0.575366,-0.29984 -0.294582,-0.19587 -0.522964,-0.43045 l 0.624651,-0.6553 q 0.197751,0.19475 0.390504,0.32291 0.356412,0.23698 0.71599,0.19382 0.356331,-0.0405 0.736728,-0.22066 z"
       id="path25"
       inkscape:label="By" /><path
       style="font-weight:bold;font-size:9.87777px;font-family:Arial;-inkscape-font-specification:'Arial, Bold';fill:#88aa00;stroke-width:0"
       d="m 41.164432,124.83182 -1.317486,-0.63631 0.361389,-1.26591 -2.397667,-1.158 -1.380206,0.77386 -1.28475,-0.6205 6.23292,-3.3311 1.280673,0.61852 z m -0.688272,-2.8413 0.619452,-2.05398 -2.256092,1.26353 z m 5.610383,4.63071 -1.228646,-0.45232 1.173503,-1.76189 q 0.372405,-0.55913 0.401965,-0.75063 0.03176,-0.19477 -0.0869,-0.35179 -0.114272,-0.1554 -0.363503,-0.24716 -0.319195,-0.1175 -0.659401,-0.0808 -0.340206,0.0367 -0.579301,0.21581 -0.234715,0.18074 -0.620109,0.75937 l -1.041437,1.56359 -1.228656,-0.45232 2.299379,-3.45227 1.141212,0.42013 -0.337768,0.50711 q 0.997503,-0.36138 1.920085,-0.0217 0.406638,0.1497 0.669698,0.38417 0.265225,0.23122 0.323171,0.46304 0.06232,0.23342 -0.01497,0.47212 -0.07294,0.2403 -0.339245,0.64013 z m 3.506862,-1.83943 -1.086686,-0.48035 q 0.459748,-0.46858 1.06609,-0.58655 0.606331,-0.11797 1.552301,0.14509 0.859144,0.23893 1.202648,0.50874 0.345223,0.26641 0.396361,0.54786 0.05746,0.27933 -0.255413,0.90108 l -0.574394,1.11057 q -0.239318,0.47566 -0.294441,0.71981 -0.04886,0.24203 -0.01012,0.54727 l -1.270426,-0.35331 q -0.002,-0.10911 0.01851,-0.3163 0.01072,-0.0938 0.01072,-0.12484 -0.448691,0.14633 -0.883261,0.16104 -0.434559,0.0147 -0.859558,-0.1035 -0.749465,-0.20842 -1.031462,-0.63153 -0.277436,-0.42184 -0.04492,-0.88391 0.153846,-0.30577 0.470006,-0.48895 0.31788,-0.18658 0.733006,-0.21443 0.421408,-0.03 1.136477,0.0605 0.963523,0.12466 1.365538,0.11253 l 0.04785,-0.0951 q 0.13846,-0.2752 0.01376,-0.44155 -0.122971,-0.16975 -0.630225,-0.31081 -0.342745,-0.0953 -0.585958,-0.0468 -0.241512,0.0451 -0.486829,0.26353 z m 1.328543,1.25249 q -0.277547,-0.008 -0.854956,-0.0712 -0.577419,-0.0638 -0.782959,-0.028 -0.318011,0.0626 -0.420579,0.26646 -0.100857,0.20046 0.02671,0.40247 0.127575,0.20201 0.438322,0.28843 0.347318,0.0966 0.748109,0.0144 0.298022,-0.0643 0.465161,-0.23082 0.111804,-0.10833 0.284456,-0.45149 z"
       id="path26"
       inkscape:label="Ana" /><path
       style="font-weight:bold;font-size:9.87777px;font-family:Arial;-inkscape-font-specification:'Arial, Bold';fill:#ffe680;stroke-width:0"
       d="m 56.327802,125.18745 -0.302402,0.78082 -0.900225,-0.1927 -0.577814,1.49193 q -0.175495,0.45316 -0.181757,0.53486 -2.22e-4,0.0792 0.07,0.1471 0.07486,0.0689 0.206157,0.097 0.182859,0.0392 0.566271,0.0193 l -0.181777,0.78401 q -0.516186,0.048 -1.097581,-0.0764 -0.356341,-0.0763 -0.608597,-0.22465 -0.250911,-0.15186 -0.332882,-0.3204 -0.07597,-0.17102 -0.03439,-0.42258 0.02398,-0.17984 0.225105,-0.69923 l 0.625066,-1.61393 -0.604834,-0.12948 0.302402,-0.78082 0.604834,0.12948 0.28486,-0.73551 1.543602,-0.28864 -0.506262,1.30718 z m 0.817405,-0.39739 0.285558,-0.91893 1.335857,0.22945 -0.285558,0.91893 z m -1.324527,4.26243 1.166381,-3.75348 1.335847,0.22945 -1.166381,3.75347 z m 3.016634,-3.42924 0.749687,0.0978 0.06748,-0.28583 q 0.113027,-0.47876 0.303251,-0.69701 0.195029,-0.21761 0.59485,-0.31645 0.405455,-0.10177 0.96772,-0.0284 0.576691,0.0752 1.098977,0.27598 l -0.347924,0.67645 q -0.308492,-0.0992 -0.606443,-0.13806 -0.293145,-0.0383 -0.447366,0.0484 -0.148555,0.0837 -0.21688,0.37314 l -0.06323,0.26796 1.009197,0.13168 -0.1864,0.7896 -1.009197,-0.13168 -0.709323,3.00475 -1.350404,-0.17621 0.709323,-3.00474 -0.749687,-0.0978 z"
       id="path27"
       inkscape:label="tif" /><path
       style="font-weight:bold;font-size:9.87777px;font-family:Arial;-inkscape-font-specification:'Arial, Bold';fill:#ffaaaa;stroke-width:0"
       d="m 71.03112,130.32178 -1.570217,-0.0387 -0.570318,-1.22267 -2.857608,-0.0705 -0.643923,1.19272 -1.53121,-0.0378 3.021642,-5.24623 1.526333,0.0377 z m -2.563835,-2.16832 -0.897039,-1.99653 -1.053545,1.94842 z m 2.855383,-1.73581 1.273915,-0.0789 0.06323,0.56393 q 0.215555,-0.30456 0.618309,-0.51152 0.402754,-0.20696 0.918151,-0.2389 0.899528,-0.0557 1.585534,0.42955 0.685996,0.48528 0.790971,1.42154 0.107808,0.96157 -0.464301,1.53574 -0.572523,0.57057 -1.47205,0.62632 -0.427873,0.0265 -0.792145,-0.0783 -0.359406,-0.10513 -0.777982,-0.38859 l 0.21684,1.93398 -1.366307,0.0847 z m 1.559626,1.77067 q 0.07253,0.64707 0.452626,0.93656 0.379679,0.28587 0.875633,0.25514 0.476501,-0.0296 0.760937,-0.33108 0.284031,-0.30516 0.211478,-0.95223 -0.06768,-0.60369 -0.426285,-0.87631 -0.358597,-0.27262 -0.839963,-0.24278 -0.50082,0.0311 -0.799034,0.34071 -0.298618,0.30607 -0.235392,0.86999 z m 3.972306,-2.14563 1.255383,-0.17927 0.143578,0.55572 q 0.17074,-0.31989 0.541588,-0.55754 0.370848,-0.23764 0.878749,-0.31017 0.886437,-0.1266 1.638006,0.30167 0.751558,0.42826 0.989945,1.3509 0.244821,0.94758 -0.241857,1.56376 -0.487608,0.61262 -1.374045,0.7392 -0.421651,0.0602 -0.798862,-0.0152 -0.372415,-0.0761 -0.829179,-0.32484 l 0.492413,1.90583 -1.346428,0.19229 z m 1.804214,1.63724 q 0.164741,0.63766 0.584096,0.89544 0.418434,0.25421 0.907175,0.18441 0.469571,-0.0671 0.709233,-0.3894 0.238741,-0.32589 0.07395,-0.96355 -0.153705,-0.59491 -0.549297,-0.83761 -0.395582,-0.2427 -0.869948,-0.17496 -0.493526,0.0705 -0.745721,0.402 -0.253116,0.32795 -0.109528,0.88367 z m 4.302628,0.27127 1.257507,-0.44349 q 0.199147,0.26612 0.51648,0.35815 0.315947,0.0886 0.778589,-0.0147 0.509368,-0.11368 0.710285,-0.31001 0.133624,-0.13586 0.06768,-0.29916 -0.04492,-0.11118 -0.167807,-0.16328 -0.126189,-0.0476 -0.491179,-0.0305 -1.69408,0.094 -2.2063,-0.0265 -0.709456,-0.16738 -0.92408,-0.69895 -0.193582,-0.47945 0.183932,-0.91971 0.377514,-0.44026 1.447671,-0.67908 1.018746,-0.22735 1.613696,-0.0912 0.594951,0.13612 0.976856,0.57734 l -1.169649,0.44661 q -0.166411,-0.19768 -0.437018,-0.26228 -0.265923,-0.0657 -0.677164,0.0262 -0.518725,0.11576 -0.699552,0.27352 -0.118672,0.10981 -0.0696,0.23141 0.04208,0.10423 0.202384,0.14799 0.21686,0.0577 1.335189,0.002 1.123003,-0.0575 1.64271,0.10682 0.516449,0.1688 0.704417,0.63435 0.204802,0.50725 -0.218033,0.99929 -0.422834,0.49203 -1.539717,0.74128 -1.014083,0.22631 -1.731014,0.053 -0.712257,-0.17433 -1.106321,-0.65828 z m 9.730677,-1.32884 -4.758755,-4.16824 1.318458,-0.49722 3.184319,2.89504 -1.05651,-3.69747 1.531675,-0.57762 3.378498,2.89096 -1.281148,-3.68191 1.296707,-0.48901 1.686705,5.32676 -1.366327,0.51527 -3.689711,-3.06645 1.152876,4.02313 z m 5.470558,-4.39688 q -0.387681,-0.41812 -0.473254,-0.95142 -0.08558,-0.5333 0.229515,-0.99878 0.319114,-0.46754 0.945799,-0.78871 0.968145,-0.49616 2.021553,-0.3443 1.05063,0.14886 1.71246,0.86266 0.66737,0.71977 0.48098,1.51581 -0.18514,0.79099 -1.13319,1.27685 -0.58651,0.30059 -1.30357,0.37728 -0.713033,0.0746 -1.341904,-0.16261 -0.631631,-0.24023 -1.138389,-0.78678 z m 1.198489,-0.54812 q 0.437524,0.47189 0.971424,0.56836 0.5339,0.0965 0.97579,-0.13 0.4419,-0.22646 0.50656,-0.62969 0.0687,-0.40528 -0.37439,-0.88313 -0.43199,-0.46592 -0.96589,-0.56239 -0.529883,-0.0985 -0.971766,0.12794 -0.441894,0.22646 -0.510572,0.63174 -0.06869,0.40528 0.368844,0.87717 z m 6.547604,-1.21954 -1.05671,0.64945 -3.30149,-2.96915 0.9815,-0.60323 0.46942,0.42216 q -0.0806,-0.454 0.0129,-0.67155 0.0973,-0.21987 0.35309,-0.37703 0.36101,-0.22188 0.86046,-0.2794 l 0.43448,0.88605 q -0.41001,0.0355 -0.6394,0.17648 -0.22187,0.13636 -0.27346,0.32338 -0.0547,0.18423 0.11928,0.47734 0.17775,0.29081 1.02022,1.04847 z m 1.94824,-1.25327 -4.87041,-3.89462 1.00411,-0.69405 4.8704,3.89461 z m 5.26055,-4.00102 -0.86265,0.69644 -0.5599,-0.38333 q 0.11176,0.39706 -0.0209,0.74512 -0.13294,0.34293 -0.43041,0.58308 -0.60486,0.4883 -1.56543,0.47664 -0.96087,-0.0168 -1.90839,-0.66552 -0.96906,-0.66347 -1.05177,-1.34637 -0.0863,-0.68535 0.55491,-1.20301 0.58833,-0.47496 1.5492,-0.45817 l -1.89505,-1.29745 0.92876,-0.74981 z m -4.46727,0.63993 q 0.61015,0.41773 1.03826,0.47908 0.61957,0.0889 1.0228,-0.23668 0.32061,-0.25883 0.25105,-0.64178 -0.0731,-0.3854 -0.66175,-0.78839 -0.65681,-0.44969 -1.16208,-0.47016 -0.50886,-0.0229 -0.84929,0.25191 -0.33052,0.26683 -0.26815,0.64486 0.0621,0.37291 0.62916,0.76116 z"
       id="path28"
       inkscape:label="Apps World" /><path
       style="font-weight:bold;font-size:9.87777px;font-family:Arial;-inkscape-font-specification:'Arial, Bold';fill:#ffffff;stroke-width:0"
       d="m 79.288061,15.742766 1.617225,-7.3130943 2.030839,0.5317845 0.116266,5.3077788 2.308821,-4.6727584 2.035423,0.5329854 -1.617225,7.313093 -1.260678,-0.330114 1.27304,-5.756692 -2.607068,5.40737 -1.306521,-0.342118 -0.0564,-6.104813 -1.273041,5.756692 z m 8.834333,-1.373352 q 0.39635,-1.065322 0.958128,-1.659215 0.416703,-0.436389 0.950049,-0.694077 0.537717,-0.255765 1.063969,-0.26195 0.701393,-0.01206 1.483724,0.332591 1.41606,0.623837 1.908296,1.953304 0.496607,1.331392 -0.136844,3.034004 -0.628144,1.688344 -1.827314,2.272673 -1.197402,0.579573 -2.609092,-0.04234 -1.429174,-0.629613 -1.920577,-1.947642 -0.489635,-1.322786 0.129661,-2.987348 z m 1.350715,0.539694 q -0.440585,1.184218 -0.166225,2.019153 0.276128,0.830178 1.049717,1.170978 0.773589,0.340799 1.492179,-0.04563 0.724729,-0.389257 1.17593,-1.602011 0.445893,-1.198487 0.180169,-2.001939 -0.261354,-0.801528 -1.061167,-1.15388 -0.799812,-0.352353 -1.512261,0.03124 -0.71068,0.37884 -1.158342,1.582082 z m 4.565098,6.212923 3.455727,-6.514415 1.176084,0.738743 0.142431,5.889397 2.307751,-4.350349 1.12299,0.705396 -3.455724,6.514416 -1.212837,-0.761828 -0.159894,-5.764108 -2.25353,4.248145 z m 5.975843,3.889178 4.19644,-5.977132 4.07279,3.385877 -0.7099,1.011139 -2.96373,-2.463873 -0.93032,1.32508 2.75766,2.292554 -0.70704,1.007061 -2.75766,-2.292553 -1.14214,1.626791 3.06865,2.551089 -0.70704,1.00706 z m 6.36304,5.71651 2.03823,-2.258918 0.9979,-5.038659 1.16748,1.247364 -0.75525,3.36363 3.0532,-0.908444 1.14729,1.225795 -4.6247,1.178075 -2.03163,2.251595 z"
       id="path17"
       inkscape:label="Money" /><path
       style="font-weight:bold;font-size:9.87777px;font-family:Arial;-inkscape-font-specification:'Arial, Bold';fill:#ffffff;stroke-width:0"
       d="m 62.161125,15.554143 -0.61366,-7.492153 2.080564,-0.201787 1.667872,4.989447 0.816592,-5.230407 2.08526,-0.2022425 0.61366,7.4921535 -1.291546,0.125263 -0.483059,-5.8976435 -0.883632,6.0301935 -1.33851,0.129819 -1.845053,-5.7655486 0.483059,5.8976426 z m 9.859015,-0.521922 0.138714,-3.162145 -2.338282,-4.4825259 1.634296,0.084891 1.49448,3.0569209 1.722304,-2.8898303 1.606037,0.083423 -2.729897,4.2295403 -0.138265,3.151895 z"
       id="path16"
       inkscape:label="My" /><path
       style="font-weight:bold;font-size:9.87777px;font-family:Arial;-inkscape-font-specification:'Arial, Bold';fill:#ffffff;stroke-width:0"
       d="m 31.692401,32.781547 -4.066102,-4.413378 -1.448497,1.580213 -0.82791,-0.898619 3.879309,-4.232066 0.827909,0.898618 -1.445167,1.576581 4.066102,4.413379 z m 3.110617,-3.312859 -4.281163,-5.905553 2.306318,-1.979754 q 0.869959,-0.746777 1.379179,-0.922488 0.51,-0.182917 1.041876,0.02057 0.531875,0.203485 0.911514,0.72717 0.48185,0.664676 0.438153,1.407982 -0.04661,0.739277 -0.679326,1.465381 0.518925,-0.07948 0.944106,-0.0066 0.428883,0.0697 1.320663,0.421702 l 1.497855,0.583284 -1.310491,1.124932 -1.723795,-0.604998 q -0.921394,-0.32658 -1.205369,-0.37036 -0.286896,-0.04781 -0.507613,0.0371 -0.223637,0.08087 -0.601236,0.405006 l -0.222117,0.190667 1.787225,2.465346 z m -1.374797,-4.348601 0.810728,-0.695934 q 0.788516,-0.676866 0.932155,-0.917797 0.143637,-0.240933 0.126202,-0.513514 -0.01743,-0.272579 -0.210174,-0.538451 -0.216102,-0.298097 -0.495594,-0.352262 -0.27871,-0.06137 -0.580294,0.11909 -0.147872,0.09425 -0.814224,0.666258 l -0.855151,0.734066 z m 12.255439,-3.755082 -1.303023,0.848005 -1.323888,-1.129249 -2.371338,1.543261 0.316273,1.785003 -1.270649,0.826935 -1.237335,-7.95919 1.266602,-0.824302 z m -3.609126,-1.118704 -2.133997,-1.86349 0.515336,2.91691 z m 7.339237,-3.666032 1.412172,-0.158283 q 0.165311,1.26439 -0.280988,2.129759 -0.443851,0.858619 -1.464539,1.340943 -1.262885,0.596772 -2.449727,0.04445 -1.18872,-0.55703 -1.838561,-2.185398 -0.687403,-1.722492 -0.249374,-3.059425 0.436149,-1.341639 1.768233,-1.971111 1.163412,-0.549767 2.188628,-0.144819 0.609042,0.238014 1.155844,0.964129 L 48.51972,14.46877 q -0.326558,-0.483377 -0.809487,-0.62436 -0.478603,-0.143027 -0.988947,0.09814 -0.704967,0.333129 -0.926368,1.092224 -0.217076,0.757052 0.275,1.990093 0.522126,1.308341 1.176243,1.659306 0.654116,0.350965 1.346108,0.02397 0.510343,-0.241161 0.737102,-0.76785 0.22676,-0.526688 0.0844,-1.360015 z m 3.41046,1.51443 -1.909226,-7.229247 1.341391,-0.41948 0.847821,3.21026 1.86215,-4.0577219 1.803628,-0.5640299 -1.757878,3.5980298 3.803056,3.588704 -1.735651,0.542772 -2.722294,-2.821601 -0.768541,1.548281 0.576935,2.184554 z"
       id="path15"
       inkscape:label="Track" /><g
       style="fill:#00ffff"
       id="g5"
       transform="matrix(0.01978655,0,0,0.04409354,65.565199,53.864668)"
       inkscape:label="Tree"><g
         id="g57"
         style="fill:#00ffff">
	<g
   id="g56"
   style="fill:#00ffff">
		<path
   d="m 449.941,289.311 c -7.776,0.561 -19.092,0.575 -27.773,-1.759 -1.456,-0.392 -1.392,-0.9 0.11,-1.035 42.289,-3.855 79.637,-19.556 99.267,-40.649 5.588,-6.01 9.994,-12.601 13.124,-19.657 1.42,-3.198 2.305,-6.582 3.458,-9.878 1.239,-3.54 1.472,-5.389 1.261,-6.3 -0.34,-1.469 -2.555,0.89 -2.992,2.332 -0.572,1.894 -1.147,3.782 -1.935,5.606 -1.649,3.813 -3.791,7.442 -6.159,10.973 -0.839,1.251 -2.157,1.196 -2.935,-0.095 -3.32,-5.514 -6.846,-10.952 -8.097,-16.337 -0.343,-1.469 -0.677,-1.493 -0.747,0.012 -0.446,9.55 5.413,20.82 0.539,29.067 -5.013,8.473 -17.277,14.737 -28.44,19.676 -22.49,9.954 -52.029,12.965 -77.62,20.062 -27.411,7.604 -44.657,21.038 -54.235,37.87 -0.746,1.311 -1.416,1.182 -1.612,-0.314 -0.132,-0.998 -0.284,-2.004 -0.468,-3.018 -3.329,-18.51 -9.921,-37.439 -9.407,-55.582 0.487,-17.096 7.88,-33.25 23.162,-45.358 3.613,-2.849 7.613,-5.465 11.899,-7.889 2.638,-1.5 11.562,-5.771 13.023,-6.136 37.231,-9.21 68.682,-29.474 83.756,-52.833 4.299,-6.668 7.476,-13.767 9.461,-21.163 0.9,-3.351 1.301,-6.824 1.952,-10.236 0.658,-3.442 0.692,-5.297 0.453,-6.236 -0.373,-1.459 -2.23,1.034 -2.457,2.524 -0.294,1.949 -0.588,3.893 -1.083,5.802 -1.028,3.975 -2.519,7.828 -4.217,11.613 -0.618,1.377 -1.839,1.472 -2.714,0.245 -3.577,-5.015 -7.32,-9.93 -9.052,-15.08 -0.48,-1.429 -0.783,-1.417 -0.67,0.089 0.7,9.529 7.236,19.966 3.831,28.764 -3.504,9.042 -13.739,16.806 -23.143,23.121 -18.948,12.721 -44.991,19.453 -67.039,29.731 -42.105,19.636 -53.247,53.553 -47.503,89.927 0.235,1.49 -0.542,1.983 -1.84,1.212 -0.581,-0.346 -1.178,-0.68 -1.787,-1.007 -1.331,-0.71 -3.28,-2.114 -4.36,-3.167 -5.092,-4.963 -11.117,-9.648 -18.188,-13.99 -20.734,-12.721 -45.842,-22.369 -63.223,-37.164 -8.623,-7.341 -17.91,-16.221 -20.361,-25.603 -2.384,-9.125 5.297,-18.755 7.078,-28.14 0.281,-1.481 -0.016,-1.533 -0.655,-0.165 -2.308,4.917 -6.582,9.379 -10.71,13.954 -1.01,1.12 -2.212,0.884 -2.668,-0.551 -1.258,-3.957 -2.298,-7.953 -2.867,-12.017 -0.272,-1.952 -0.346,-3.917 -0.417,-5.888 -0.055,-1.505 -1.615,-4.195 -2.154,-2.788 -0.346,0.909 -0.521,2.751 -0.26,6.249 0.257,3.467 0.263,6.961 0.774,10.392 1.132,7.576 3.479,14.988 6.992,22.102 12.32,24.921 41.261,48.629 77.204,62.017 1.413,0.526 1.35,1.086 -0.159,1.129 -7.959,0.229 -17.555,-2.265 -24.144,-4.529 -1.426,-0.49 -1.814,0.04 -0.759,1.117 4.642,4.734 12.139,9.042 21.576,9.489 3.118,0.162 5.891,-0.765 8.721,-1.649 4.287,-1.34 4.554,0.229 7.005,2.02 3.983,2.895 7.662,5.949 10.927,9.189 13.804,13.768 19.312,30.658 17.853,47.697 -0.053,0.605 -0.113,1.215 -0.184,1.82 -0.113,1.006 -0.631,2.977 -1.215,4.365 -1.524,3.615 -3.492,7.084 -5.609,10.506 -0.793,1.281 -2.521,1.717 -3.819,0.943 -2.2,-1.314 -4.296,-2.688 -6.165,-4.189 -1.176,-0.945 -1.304,-0.836 -0.374,0.348 1.671,2.127 3.357,4.254 5.073,6.375 0.949,1.172 1.06,3.145 0.248,4.418 -4.718,7.43 -9.002,14.984 -9.669,23.666 -0.145,1.826 -0.202,3.664 -0.19,5.506 0.01,1.508 -0.608,1.707 -1.532,0.514 -8.22,-10.576 -21.598,-17.553 -29.496,-28.418 -1.649,-2.266 -3.026,-4.691 -4.202,-7.229 -0.633,-1.367 -0.909,-2.879 -0.694,-3.338 0.214,-0.459 0.192,-0.541 -0.074,-0.199 -0.266,0.342 -0.93,-0.508 -1.42,-1.938 -1.107,-3.24 -1.967,-6.605 -2.665,-10.039 -0.737,-3.613 -2.142,-7.424 -0.536,-11.812 1.362,-3.727 4.394,-7.518 6.463,-11.252 4.073,-7.398 7.592,-14.732 10.97,-22.062 0.631,-1.369 0.48,-1.447 -0.452,-0.266 -4.942,6.252 -12.684,11.334 -18.045,17.375 -1,1.129 -1.891,0.893 -2.121,-0.598 -5.59,-36.398 -26.521,-65.318 -72.604,-71.221 -24.128,-3.087 -50.986,-1.579 -72.904,-7.935 -10.875,-3.155 -22.99,-7.439 -29.076,-14.988 -5.918,-7.344 -2.871,-19.275 -5.098,-28.565 -0.352,-1.466 -0.643,-1.39 -0.667,0.116 -0.085,5.431 -2.154,11.251 -4.036,17.121 -0.462,1.435 -1.655,1.713 -2.662,0.591 -2.77,-3.091 -5.358,-6.31 -7.549,-9.78 -1.052,-1.667 -1.921,-3.43 -2.797,-5.199 -0.667,-1.353 -3.194,-3.164 -3.109,-1.659 0.055,0.97 0.655,2.724 2.326,5.805 1.659,3.054 3.097,6.239 4.973,9.159 4.14,6.444 9.324,12.24 15.45,17.283 21.466,17.666 57.589,27.405 95.858,24.859 1.505,-0.101 1.677,0.438 0.321,1.096 -7.164,3.476 -16.938,5.144 -23.875,5.78 -1.502,0.138 -1.637,0.78 -0.232,1.331 6.175,2.411 14.783,3.265 23.571,-0.205 2.91,-1.132 5.055,-3.115 7.277,-5.083 3.36,-2.98 4.247,-1.659 7.215,-1.035 4.819,1.004 9.428,2.28 13.736,3.896 18.241,6.888 30.196,20.028 35.857,36.166 6.01,17.128 5.483,37.163 7.944,55.812 0.814,6.182 2.344,11.852 4.443,17.166 0.554,1.402 0.129,3.318 -0.991,4.33 -1.686,1.527 -3.299,3.082 -4.743,4.707 -1,1.125 -1.891,0.893 -2.121,-0.598 -5.59,-36.398 -26.521,-65.318 -72.602,-71.221 -24.128,-3.088 -50.985,-1.578 -72.904,-7.935 -10.875,-3.155 -22.99,-7.439 -29.076,-14.988 -5.918,-7.344 -2.87,-19.275 -5.098,-28.565 -0.352,-1.466 -0.643,-1.389 -0.667,0.116 -0.085,5.432 -2.154,11.252 -4.036,17.121 -0.462,1.435 -1.655,1.713 -2.662,0.59 -2.769,-3.091 -5.358,-6.31 -7.549,-9.78 -1.053,-1.667 -1.922,-3.43 -2.797,-5.199 -0.667,-1.353 -3.195,-3.164 -3.109,-1.659 0.055,0.97 0.655,2.724 2.325,5.805 1.659,3.054 3.097,6.239 4.973,9.159 4.14,6.444 9.324,12.237 15.45,17.283 21.466,17.667 57.589,27.405 95.857,24.86 1.505,-0.102 11.304,1.258 14.272,1.881 4.819,1.004 9.428,2.281 13.736,3.896 18.24,6.889 30.193,20.027 35.857,36.166 6.01,17.127 5.483,37.164 7.944,55.809 2.503,19.029 11.723,33.305 23.788,46.842 1.004,1.127 0.765,1.426 -0.603,0.787 -5.976,-2.791 -13.605,-4.545 -22.372,-3.191 -1.49,0.229 -1.457,0.445 0.049,0.523 14.826,0.742 22.39,11.977 29.584,19.77 1.671,1.807 3.363,3.6 5.242,5.254 2.947,2.598 2.185,9.088 2.613,13.098 0.465,4.373 0.848,8.779 1.224,13.188 1.043,38.594 -3.51,64.049 -5.196,72.002 -0.312,1.475 0.569,2.322 2.038,1.977 5.68,-1.342 8.008,-0.811 14.795,0.689 7.751,1.713 64.588,2.809 62.005,0 -2.583,-2.809 -14.826,-84.279 -13.874,-86.83 3.681,-9.844 4.758,-20.318 4.22,-31.02 -0.076,-1.506 0.545,-3.719 1.487,-4.893 4.538,-5.646 10.468,-10.672 19.93,-12.504 1.48,-0.287 1.472,-0.486 -0.037,-0.475 -7.999,0.064 -14.733,2.047 -20.165,4.789 -1.347,0.68 -2.484,0.713 -2.595,-0.018 -0.11,-0.732 0.446,-2.354 1.232,-3.639 8.422,-13.783 13.838,-28.051 12.653,-45.15 -0.594,-8.605 -1.925,-17.393 -2.922,-26.111 -0.172,-1.5 0.646,-3.492 1.802,-4.459 2.424,-2.027 4.808,-4.068 7.17,-6.123 1.139,-0.988 1.037,-1.123 -0.303,-0.428 -1.711,0.887 -3.541,1.643 -5.438,2.328 -1.417,0.516 -1.536,0.246 -0.175,-0.4 0.686,-0.324 1.398,-0.631 2.143,-0.914 1.41,-0.537 1.373,-0.754 -0.117,-0.516 -1.144,0.184 -2.255,0.418 -3.332,0.686 -1.463,0.367 -2.714,-0.465 -2.797,-1.973 -0.346,-6.312 -0.251,-12.527 0.72,-18.541 2.723,-16.885 12.928,-31.867 31.304,-41.729 4.342,-2.316 9.082,-4.35 14.112,-6.15 3.097,-1.115 3.779,-2.568 8.069,-0.188 2.833,1.57 5.591,3.17 8.996,3.801 10.386,1.967 19.633,-0.371 25.836,-3.834 1.341,-0.727 1.13,-1.311 -0.375,-1.201 z m -187.425,98.021 c 1.361,-3.727 4.394,-7.52 6.462,-11.252 0.441,-0.799 0.869,-1.598 1.292,-2.393 0.704,-1.328 1.857,-1.334 2.628,-0.041 3.819,6.385 8.461,12.32 13.626,18.119 1.003,1.127 0.762,1.426 -0.603,0.789 -5.725,-2.664 -12.978,-4.357 -21.285,-3.301 -1.497,0.189 -2.625,-0.105 -2.47,-0.756 0.093,-0.386 0.206,-0.77 0.35,-1.165 z m 39.165,63.066 c -8.21,-10.631 -21.652,-17.617 -29.575,-28.516 -4.804,-6.596 -7.375,-14.49 -9.051,-22.74 -0.429,-2.09 -1.062,-4.244 -1.215,-6.539 -0.101,-1.506 1.3,-2.744 2.803,-2.615 14.131,1.205 21.527,12.059 28.55,19.666 1.671,1.805 3.363,3.598 5.242,5.254 2.943,2.598 2.185,9.088 2.613,13.098 0.771,7.252 1.334,14.586 1.985,21.885 0.129,1.505 -0.431,1.701 -1.352,0.507 z m 45.423,-84.591 c 0.101,-0.24 0.208,-0.18 0.202,0.133 -0.003,0.312 -0.119,0.502 -0.218,0.434 -0.095,-0.071 -0.085,-0.325 0.016,-0.567 z m 2.138,26.908 c -0.055,6.719 -0.792,13.305 -3.023,19.408 -0.517,1.418 -1.291,1.338 -1.615,-0.135 -0.392,-1.777 -0.771,-3.555 -1.139,-5.332 -0.808,-3.947 -3.507,-9.9 -1.493,-13.271 1.288,-2.148 2.354,-4.371 3.394,-6.602 0.404,-0.869 0.805,-1.766 1.209,-2.68 0.605,-1.381 1.738,-1.445 2.173,0 0.896,2.975 0.522,5.879 0.494,8.612 z"
   id="path1-8"
   style="fill:#aa0000" />
		<circle
   cx="316.99301"
   cy="148.09801"
   r="19.863001"
   id="circle1"
   style="fill:#00ffff" />
		<circle
   cx="271.09299"
   cy="157.278"
   r="19.862"
   id="circle2"
   style="fill:#00ffff" />
		<circle
   cx="173.213"
   cy="168.832"
   r="19.863001"
   id="circle3"
   style="fill:#00ffff" />
		<circle
   cx="191.573"
   cy="211.672"
   r="19.862"
   id="circle4"
   style="fill:#00ffff" />
		<circle
   cx="226.295"
   cy="143.235"
   r="19.862"
   id="circle5"
   style="fill:#00ffff" />
		<circle
   cx="373.09201"
   cy="139.33099"
   r="19.863001"
   id="circle6"
   style="fill:#00ffff" />
		<circle
   cx="331.617"
   cy="101.953"
   r="19.863001"
   id="circle7"
   style="fill:#00ffff" />
		<circle
   cx="391.76501"
   cy="229.63699"
   r="19.863001"
   id="circle8"
   style="fill:#00ffff" />
		<circle
   cx="371.901"
   cy="267.77399"
   r="19.863001"
   id="circle9-2"
   style="fill:#00ffff" />
		<circle
   cx="176.545"
   cy="122.528"
   r="19.862"
   id="circle10"
   style="fill:#00ffff" />
		<circle
   cx="119.424"
   cy="158.474"
   r="19.862"
   id="circle11"
   style="fill:#00ffff" />
		<circle
   cx="139.287"
   cy="204.31599"
   r="19.863001"
   id="circle12"
   style="fill:#00ffff" />
		<circle
   cx="126.566"
   cy="109.991"
   r="19.863001"
   id="circle13"
   style="fill:#00ffff" />
		<circle
   cx="379.21201"
   cy="88.927002"
   r="19.863001"
   id="circle14"
   style="fill:#00ffff" />
		<circle
   cx="450.61401"
   cy="207.052"
   r="19.863001"
   id="circle15"
   style="fill:#00ffff" />
		<circle
   cx="432.254"
   cy="249.892"
   r="19.862"
   id="circle16"
   style="fill:#00ffff" />
		<circle
   cx="495.492"
   cy="171.892"
   r="19.863001"
   id="circle17"
   style="fill:#00ffff" />
		<circle
   cx="491.83899"
   cy="223.995"
   r="19.863001"
   id="circle18"
   style="fill:#00ffff" />
		<circle
   cx="78.689003"
   cy="310.776"
   r="19.862"
   id="circle19"
   style="fill:#00ffff" />
		<circle
   cx="38.967999"
   cy="275.95999"
   r="19.863001"
   id="circle20"
   style="fill:#00ffff" />
		<circle
   cx="311.12701"
   cy="324.14301"
   r="19.863001"
   id="circle21"
   style="fill:#00ffff" />
		<circle
   cx="530.17401"
   cy="135.552"
   r="19.862"
   id="circle22"
   style="fill:#00ffff" />
		<circle
   cx="539.45801"
   cy="184.132"
   r="19.862"
   id="circle23"
   style="fill:#00ffff" />
		<circle
   cx="408.56601"
   cy="330.63599"
   r="19.862"
   id="circle24"
   style="fill:#00ffff" />
		<circle
   cx="365.22198"
   cy="39.724998"
   r="19.863001"
   id="circle25"
   style="fill:#00ffff" />
		<circle
   cx="459.73599"
   cy="321.08301"
   r="19.862"
   id="circle26"
   style="fill:#00ffff" />
		<circle
   cx="506.17499"
   cy="290.69699"
   r="19.862"
   id="circle27"
   style="fill:#00ffff" />
		<circle
   cx="545.89899"
   cy="258.677"
   r="19.863001"
   id="circle28"
   style="fill:#00ffff" />
		<circle
   cx="101.389"
   cy="66.835999"
   r="19.862"
   id="circle29"
   style="fill:#00ffff" />
		<circle
   cx="219.327"
   cy="42.355999"
   r="19.863001"
   id="circle30"
   style="fill:#00ffff" />
		<circle
   cx="284.89099"
   cy="19.862"
   r="19.862"
   id="circle31"
   style="fill:#00ffff" />
		<circle
   cx="357.60001"
   cy="182.04201"
   r="19.863001"
   id="circle32"
   style="fill:#00ffff" />
		<circle
   cx="211.62199"
   cy="278.15399"
   r="19.862"
   id="circle33"
   style="fill:#00ffff" />
		<circle
   cx="105.948"
   cy="258.677"
   r="19.863001"
   id="circle34"
   style="fill:#00ffff" />
		<circle
   cx="149.48599"
   cy="272.814"
   r="19.862"
   id="circle35"
   style="fill:#00ffff" />
		<circle
   cx="189.21001"
   cy="342.87601"
   r="19.862"
   id="circle36"
   style="fill:#00ffff" />
		<circle
   cx="133.48801"
   cy="338.944"
   r="19.862"
   id="circle37"
   style="fill:#00ffff" />
		<circle
   cx="50.485001"
   cy="219.29201"
   r="19.863001"
   id="circle38"
   style="fill:#00ffff" />
		<circle
   cx="76.468002"
   cy="163.092"
   r="19.863001"
   id="circle39"
   style="fill:#00ffff" />
		<circle
   cx="30.622999"
   cy="174.42"
   r="19.863001"
   id="circle40"
   style="fill:#00ffff" />
		<circle
   cx="79.528"
   cy="115.796"
   r="19.862"
   id="circle41"
   style="fill:#00ffff" />
		<circle
   cx="219.327"
   cy="90.128998"
   r="19.863001"
   id="circle42"
   style="fill:#00ffff" />
		<circle
   cx="319.37701"
   cy="58.382"
   r="19.863001"
   id="circle43"
   style="fill:#00ffff" />
		<circle
   cx="425.36899"
   cy="103.721"
   r="19.863001"
   id="circle44"
   style="fill:#00ffff" />
		<circle
   cx="422.31"
   cy="149.62199"
   r="19.862"
   id="circle45"
   style="fill:#00ffff" />
		<circle
   cx="469.513"
   cy="78.244003"
   r="19.863001"
   id="circle46"
   style="fill:#00ffff" />
		<circle
   cx="519.599"
   cy="90.128998"
   r="19.863001"
   id="circle47"
   style="fill:#00ffff" />
		<circle
   cx="417.74701"
   cy="53.464001"
   r="19.863001"
   id="circle48"
   style="fill:#00ffff" />
		<circle
   cx="259.052"
   cy="207.37601"
   r="19.862"
   id="circle49"
   style="fill:#00ffff" />
		<circle
   cx="219.327"
   cy="384.53799"
   r="19.862"
   id="circle50"
   style="fill:#00ffff" />
		<circle
   cx="265.03101"
   cy="62.216"
   r="19.863001"
   id="circle51"
   style="fill:#00ffff" />
		<circle
   cx="274.211"
   cy="108.116"
   r="19.862"
   id="circle52"
   style="fill:#00ffff" />
		<circle
   cx="169.34801"
   cy="77.515999"
   r="19.863001"
   id="circle53"
   style="fill:#00ffff" />
		<circle
   cx="146.42599"
   cy="33.605"
   r="19.863001"
   id="circle54"
   style="fill:#00ffff" />
		<circle
   cx="311.12701"
   cy="243.291"
   r="19.863001"
   id="circle55"
   style="fill:#00ffff" />
		<circle
   cx="308.06699"
   cy="197.39101"
   r="19.863001"
   id="circle56"
   style="fill:#00ffff" />
	</g>
</g></g></g><style
     type="text/css"
     id="style1-8">
	.st0{fill:#000000;}
</style><style
     type="text/css"
     id="style1-0">
	.st0{fill:#000000;}
</style></svg>
