<?xml version="1.0" encoding="UTF-8" standalone="no"?>
<!-- Created with Inkscape (http://www.inkscape.org/) -->

<svg
   width="720"
   height="720"
   viewBox="0 0 190.5 190.5"
   version="1.1"
   id="svg1"
   inkscape:version="1.4.2 (f4327f4, 2025-05-13)"
   sodipodi:docname="StockPLRecordLogo.svg"
   xmlns:inkscape="http://www.inkscape.org/namespaces/inkscape"
   xmlns:sodipodi="http://sodipodi.sourceforge.net/DTD/sodipodi-0.dtd"
   xmlns="http://www.w3.org/2000/svg"
   xmlns:svg="http://www.w3.org/2000/svg">
  <sodipodi:namedview
     id="namedview1"
     pagecolor="#ffffff"
     bordercolor="#000000"
     borderopacity="0.25"
     inkscape:showpageshadow="2"
     inkscape:pageopacity="0.0"
     inkscape:pagecheckerboard="0"
     inkscape:deskcolor="#d1d1d1"
     inkscape:document-units="px"
     showguides="true"
     inkscape:zoom="0.73701597"
     inkscape:cx="451.14355"
     inkscape:cy="417.22298"
     inkscape:window-width="1440"
     inkscape:window-height="829"
     inkscape:window-x="-8"
     inkscape:window-y="-8"
     inkscape:window-maximized="1"
     inkscape:current-layer="layer1" />
  <defs
     id="defs1" />
  <g
     inkscape:label="Layer 1"
     inkscape:groupmode="layer"
     id="layer1"
     transform="matrix(0.72331244,0,0,0.72538469,-2.4891525,-2.0832888)">
    <path
       id="rect1"
       style="fill:#000080;stroke-width:0.271263"
       d="M 6.1741978,-1.8156601 263.42366,-0.96151746 c 3.72797,0.0123779 6.71908,3.03979006 6.70652,6.78791956 L 269.2738,261.35708 c -0.0126,3.74812 -3.0239,6.75561 -6.75185,6.74322 L 5.2724663,267.24616 c -3.7279615,-0.0124 -6.7190601,-3.03978 -6.7064986,-6.78792 L -0.57764897,4.9275739 c 0.0125615,-3.7481295 3.02388507,-6.7556118 6.75184677,-6.743234 z" />
    <path
       d="m 31.37811,36.543315 q -0.850668,2.515805 -1.447945,5.80988 -0.0905,0.488682 -0.108596,0.524881 L 28.065935,42.76948 q -0.0362,-3.094984 -0.343887,-4.126645 -0.289589,-1.031661 -1.357449,-1.466044 -1.04976,-0.452483 -2.063322,-0.452483 -1.683236,0 -2.751096,1.013561 -1.06786,0.995463 -1.06786,2.443408 0,1.049761 0.705874,2.13572 0.723972,1.085959 2.986387,3.384572 2.244315,2.226216 3.094983,3.782757 0.850668,1.538442 0.850668,3.330275 0,3.312175 -2.714897,5.882278 -2.714898,2.570103 -7.637912,2.570103 -3.782758,0 -7.294025,-1.556541 1.194555,-3.239778 2.027123,-7.529316 h 1.828031 q -0.0362,1.755633 -0.0362,2.425308 0,1.447946 0.307688,2.244316 0.325788,0.77827 0.995463,1.357448 0.669674,0.561079 1.411746,0.760172 0.742072,0.180993 1.429847,0.180993 1.936626,0 3.094983,-1.303151 1.176455,-1.303151 1.176455,-3.257877 0,-1.303151 -0.561078,-2.533905 -0.561079,-1.248852 -2.93209,-3.69226 -2.208117,-2.262415 -3.022586,-3.565566 -0.79637,-1.303151 -0.79637,-2.841593 0,-2.787294 2.515805,-4.923014 2.533905,-2.153819 6.678648,-2.153819 3.583665,0 6.787244,1.665138 z m 11.782656,7.927501 q -0.579178,0.814469 -1.06786,1.864229 -1.484144,-0.144794 -3.674161,-0.199092 -0.760171,2.190017 -1.828031,5.990874 -1.06786,3.800856 -1.06786,4.470531 0,0.561079 0.452483,0.561079 0.904966,0 3.076884,-1.936627 l 0.850668,0.959264 q -2.714898,2.552004 -4.77822,3.71036 -2.045223,1.158356 -3.239778,1.158356 -0.633476,0 -1.067859,-0.380085 -0.416285,-0.380086 -0.416285,-1.104059 0,-0.651575 0.561079,-2.497706 l 3.294076,-10.968186 q -1.339349,0 -2.334812,0.0362 L 32.264977,44.8871 q 4.199042,-1.375548 6.932039,-5.82798 h 1.59274 q -1.393648,3.818956 -1.809932,5.230702 3.294076,0 3.999949,-0.217191 z m 9.447843,-0.778271 q 2.244315,0 3.475069,1.375548 1.230753,1.357449 1.230753,3.96375 0,3.131182 -1.538442,5.918477 -1.520342,2.787295 -4.054247,4.452432 -2.533904,1.647038 -5.194504,1.647038 -2.190017,0 -3.511267,-1.520342 -1.303151,-1.520343 -1.303151,-3.99995 0,-2.932089 1.520342,-5.719384 1.538442,-2.787295 4.072347,-4.452432 2.552004,-1.665137 5.3031,-1.665137 z m -4.561028,15.692108 q 1.755634,0 3.294076,-3.674161 1.556541,-3.674162 1.556541,-7.203529 0,-3.113082 -1.918528,-3.113082 -1.918527,0 -3.366473,3.945651 -1.429846,3.927552 -1.429846,6.660549 0,1.556541 0.488682,2.479606 0.506781,0.904966 1.375548,0.904966 z M 73.621918,44.579411 q -0.850668,1.954727 -1.484144,4.416234 L 70.65363,48.887049 q 0,-3.493168 -2.190017,-3.493168 -2.009025,0 -3.637963,3.058784 -1.628939,3.040686 -1.628939,6.171868 0,1.230753 0.416284,2.280514 0.416285,1.031661 1.556542,1.031661 1.538442,0 4.524829,-2.533905 l 0.959264,1.122158 q -4.524829,4.524829 -8.072296,4.524829 -1.936627,0 -2.932089,-1.375548 -0.995462,-1.393647 -0.995462,-3.855155 0,-2.841592 1.520342,-5.737483 1.538442,-2.91399 4.090446,-4.651525 2.552004,-1.737534 5.465994,-1.737534 1.954726,0 3.891353,0.886866 z m 6.37096,3.746559 q 4.380035,-4.633425 8.271388,-4.633425 1.06786,0 1.701336,0.52488 0.633476,0.52488 0.633476,1.484144 0,4.832518 -7.67411,6.751045 l 1.701335,3.221679 q 0,0.108596 0.54298,1.031661 0.561079,0.923065 1.013562,0.923065 0.579178,0 2.407209,-1.484144 l 0.850668,0.941165 q -4.018049,3.96375 -5.918477,3.96375 -0.633476,0 -1.176456,-0.705873 -0.542979,-0.723973 -1.647037,-3.45697 -0.995463,-2.334812 -1.954727,-3.818956 l -2.190017,7.456919 q -3.113083,0 -4.561028,0.180993 6.751045,-21.646783 6.751045,-22.497451 0,-0.561079 -0.633476,-0.561079 -0.108596,0 -0.778271,0.0724 -0.850667,0.0905 -1.013561,0.0905 l 0.380085,-1.266952 q 4.977313,-1.230754 7.149231,-2.40721 l 0.814469,0.742072 q -1.900428,4.325737 -4.742021,13.375396 z m -1.031661,3.221679 q 4.307638,-0.307689 5.918477,-1.791833 1.610839,-1.484144 1.610839,-3.058784 0,-0.81447 -0.778271,-0.81447 -0.850668,0 -2.262414,1.122158 -1.393648,1.104058 -2.588203,2.298613 -1.176455,1.194555 -1.502243,1.574641 -0.325788,0.380086 -0.398185,0.669675 z"
       id="text2"
       style="font-style:italic;font-weight:bold;font-size:37.0674px;font-family:'Calisto MT';-inkscape-font-specification:'Calisto MT, Bold Italic';fill:#008000;stroke-width:2.29764;stroke-dasharray:none"
       transform="scale(1.2682527,0.7884864)"
       aria-label="Stock"
       sodipodi:insensitive="true" />
    <path
       d="m 38.650077,66.197935 q 2.134351,0.28458 5.335877,0.28458 l 18.355415,0.56916 25.398772,-0.85374 q 10.956333,0 17.359389,4.695572 6.40305,4.695571 6.40305,13.802133 0,13.517554 -10.67176,24.04702 -10.600603,10.45832 -29.596324,10.45832 -5.691601,0 -12.236943,-1.13832 -3.770686,13.01953 -6.901067,24.9719 -3.130381,11.88122 -3.130381,12.73496 0,1.35175 1.28061,1.99206 1.351756,0.6403 8.323968,1.70748 6.972212,0.99603 7.897097,0.99603 l -1.494045,4.909 Q 49.03725,164.66264 38.009772,164.66264 l -26.750528,0.71145 1.565191,-4.909 q 11.383203,-2.2055 12.592668,-2.77466 1.209466,-0.56916 2.561221,-3.55725 1.4229,-2.98809 5.976182,-17.99969 4.624426,-15.0116 10.600608,-36.71083 6.047327,-21.770377 6.047327,-23.050987 0,-1.13832 -0.853741,-1.84977 -0.85374,-0.711451 -5.122441,-1.707481 -4.197556,-1.067175 -7.612517,-1.56519 z m 22.410682,44.679075 q 3.699541,0.42687 6.545341,0.42687 10.956334,0 17.359385,-7.1145 6.403052,-7.114506 6.403052,-16.292214 0,-6.118471 -3.059236,-10.031447 -3.059236,-3.984122 -8.750837,-3.984122 -2.916946,0 -8.039387,0.853741 z"
       id="text3"
       style="font-style:italic;font-weight:bold;font-size:145.705px;font-family:'Calisto MT';-inkscape-font-specification:'Calisto MT, Bold Italic';fill:#008000;stroke-width:3.41495"
       transform="scale(1.2384985,0.80742932)"
       aria-label="P"
       sodipodi:insensitive="true" />
    <path
       d="m 193.38123,85.079373 -0.76972,2.934568 q -3.70429,0.865938 -5.6767,1.876199 -1.97242,0.962153 -3.70429,3.463752 -7.55291,10.583688 -9.33289,12.604208 3.89672,6.20589 8.08209,6.20589 2.30917,0 7.64912,-3.65618 l 2.59781,3.27132 -6.73507,5.33995 q -1.77999,1.39512 -4.90698,3.07889 -3.0789,1.63566 -5.82103,1.63566 -5.58049,0 -11.01666,-6.3021 -8.94802,6.3021 -20.109,6.3021 -8.8037,0 -13.42204,-4.66644 -4.61834,-4.71456 -4.61834,-11.49774 0,-7.793438 5.53239,-13.662573 5.58048,-5.917243 19.57982,-11.257194 -0.67351,-4.185366 -0.67351,-8.274518 0,-6.398319 2.69403,-10.968548 2.74213,-4.570228 7.50479,-6.879396 4.76266,-2.357275 9.42911,-2.357275 5.0513,0 7.84154,2.645921 2.79025,2.645922 2.79025,6.975612 0,10.679901 -16.64525,18.232805 2.88646,13.085285 7.45669,21.407906 5.53238,-6.783176 5.53238,-10.535574 0,-1.876199 -4.23348,-2.982675 l 0.86594,-2.934568 q 6.3021,0.481077 10.15072,0.481077 4.08915,0 9.95828,-0.481077 z m -30.45215,-9.66964 q 9.18857,-4.233475 9.18857,-12.604209 0,-2.838352 -1.34702,-4.762658 -1.34701,-1.924307 -3.51186,-1.924307 -5.09941,0 -5.09941,10.343148 0,2.934567 0.76972,8.948026 z m -1.8762,35.984537 q -6.83129,-11.642059 -9.62153,-26.314897 -7.07183,3.656183 -9.95829,7.601011 -2.88646,3.896721 -2.88646,8.851806 0,5.48428 3.70429,9.18857 3.70429,3.70429 9.33289,3.70429 4.47401,0 9.4291,-3.03078 z"
       id="text4"
       style="font-style:italic;font-weight:bold;font-size:98.5245px;font-family:'Calisto MT';-inkscape-font-specification:'Calisto MT, Bold Italic';fill:#d45500;stroke-width:2.30916"
       transform="scale(0.93294486,1.0718747)"
       aria-label="&amp;"
       sodipodi:insensitive="true" />
    <path
       d="m 238.10954,117.84789 q -2.75783,6.55751 -8.82506,25.31077 -18.81454,-0.61285 -45.90258,-0.61285 -10.23462,0 -26.47519,0.61285 l 1.34827,-4.22868 q 0.18386,-0.0613 1.28699,-0.24514 8.21221,-1.47084 9.56049,-2.14498 1.40955,-0.73542 3.86096,-6.80265 1.40956,-3.61583 9.56048,-31.806997 8.15093,-28.252457 8.15093,-31.561856 0,-1.470844 -1.47084,-2.083695 -1.40956,-0.612852 -6.86394,-1.715985 -0.24514,0 -1.59341,-0.24514 -1.40956,-0.245141 -1.6547,-0.245141 l 1.28698,-4.351246 q 14.09559,0.735422 23.34965,0.735422 9.4992,0 21.57237,-0.735422 l -1.16441,4.351246 q -11.03133,1.961125 -12.31832,2.512691 -1.28699,0.551567 -2.26755,2.328836 -0.98056,1.77727 -2.94169,7.660645 -1.89984,5.82209 -6.25108,21.38852 -4.35125,15.505142 -6.31238,23.227072 -1.96112,7.66065 -4.65767,16.66956 h 18.93712 q 7.72193,0 9.98948,-0.49028 2.26755,-0.49028 5.39309,-4.16739 3.12554,-3.73839 8.76378,-13.36016 z"
       id="text5"
       style="font-style:italic;font-weight:bold;font-size:125.512px;font-family:'Calisto MT';-inkscape-font-specification:'Calisto MT, Bold Italic';fill:#550000;stroke-width:2.94168"
       transform="scale(1.0582166,0.94498612)"
       aria-label="L"
       sodipodi:insensitive="true" />
    <path
       style="fill:#d40000;stroke-width:0.322406"
       d="m 238.61538,148.49231 v 24.12307 h 6.6 l -9.64616,24.87693 -10.66153,-24.87693 7.61538,0.75386 v -25.63077 z"
       id="path24"
       sodipodi:insensitive="true" />
    <path
       id="path25"
       style="fill:#00ff00;stroke-width:0.322406"
       inkscape:transform-center-x="2.6386451"
       inkscape:transform-center-y="3.971809"
       d="m 114.00711,112.54397 -28.967341,10.5865 5.957259,7.42642 c -27.827644,27.86399 -28.043134,28.35078 -28.043134,28.35078 l -2.030769,-23.86142 -47.722956,52.29241 14.215268,5.58438 26.907746,-42.13839 3.046154,25.38433 c 11.124275,-11.94051 26.804789,-30.00561 38.279604,-41.60665 l 5.573819,10.20868 z"
       sodipodi:nodetypes="cccccccccccc"
       sodipodi:insensitive="true" />
    <path
       d="m 21.732273,260.71142 h -2.891748 v 13.09628 q 0,2.58589 -1.140016,3.80932 -1.140017,1.22344 -2.975165,1.22344 -1.974174,0 -3.05858,-1.27905 -1.084406,-1.27904 -1.084406,-3.75371 v -31.36435 q 0,-2.6693 1.195627,-3.86493 1.195627,-1.19563 3.864933,-1.19563 h 13.429948 q 2.780527,0 4.754702,0.25025 1.974174,0.22244 3.559075,0.94538 1.918564,0.80635 3.392243,2.30784 1.47368,1.50148 2.224422,3.50346 0.778548,1.97418 0.778548,4.1986 0,4.56006 -2.585891,7.28498 -2.558085,2.72492 -7.785476,3.86493 2.196616,1.16782 4.198596,3.44786 2.00198,2.28003 3.559075,4.86592 1.584901,2.55809 2.446864,4.64348 0.889769,2.05759 0.889769,2.83614 0,0.80635 -0.5283,1.6127 -0.500495,0.77855 -1.390264,1.22344 -0.889769,0.47269 -2.05759,0.47269 -1.390264,0 -2.335643,-0.66733 -0.945379,-0.63952 -1.640511,-1.64051 -0.667327,-1.00099 -1.835148,-2.94736 l -3.308828,-5.50544 q -1.779538,-3.03078 -3.197607,-4.61568 -1.390263,-1.5849 -2.836138,-2.16881 -1.445874,-0.58391 -3.642491,-0.58391 z m 4.726897,-17.12805 h -7.618645 v 11.20552 h 7.396203 q 2.975164,0 5.004949,-0.50049 2.029785,-0.5283 3.086386,-1.75173 1.084405,-1.25124 1.084405,-3.42005 0,-1.69612 -0.861963,-2.97517 -0.861964,-1.30684 -2.391254,-1.94637 -1.445874,-0.61171 -5.700081,-0.61171 z m 44.377218,21.68811 H 55.988372 q 0.02781,2.58589 1.028795,4.56007 1.028795,1.97417 2.697112,2.97516 1.696121,1.00099 3.725906,1.00099 1.362459,0 2.47467,-0.30586 1.140016,-0.33366 2.196617,-1.00099 1.0566,-0.69513 1.946369,-1.47368 0.889769,-0.77854 2.307838,-2.1132 0.58391,-0.50049 1.668316,-0.50049 1.167822,0 1.890759,0.63952 0.722937,0.63952 0.722937,1.80734 0,1.0288 -0.806353,2.41906 -0.806353,1.36246 -2.446864,2.6415 -1.612706,1.25124 -4.087376,2.0854 -2.446864,0.83416 -5.64447,0.83416 -7.312787,0 -11.372358,-4.17079 -4.05957,-4.1708 -4.05957,-11.31675 0,-3.36444 1.00099,-6.22838 1.00099,-2.89175 2.919554,-4.94934 1.918564,-2.05759 4.726897,-3.142 2.808332,-1.11221 6.228381,-1.11221 4.448844,0 7.618645,1.89076 3.197607,1.86295 4.782508,4.83812 1.5849,2.97516 1.5849,6.06155 0,2.86394 -1.640511,3.7259 -1.640511,0.83416 -4.615676,0.83416 z m -14.848016,-4.30981 h 13.763611 q -0.278053,-3.89274 -2.113201,-5.81131 -1.807343,-1.94637 -4.782507,-1.94637 -2.836138,0 -4.671286,1.97418 -1.807343,1.94637 -2.196617,5.7835 z m 54.720778,8.4806 q 0,1.41807 -0.86196,3.03078 -0.83416,1.6127 -2.58589,3.08638 -1.72393,1.44588 -4.36543,2.33565 -2.6415,0.88977 -5.950328,0.88977 -7.034734,0 -10.983083,-4.08738 -3.948349,-4.11518 -3.948349,-11.01089 0,-4.67128 1.807342,-8.25816 1.807343,-3.58688 5.227392,-5.53325 3.420049,-1.97418 8.174751,-1.97418 2.947355,0 5.394225,0.86196 2.47467,0.86197 4.17079,2.22443 1.72393,1.36246 2.61369,2.91955 0.91758,1.52929 0.91758,2.86394 0,1.36246 -1.0288,2.30784 -1.00099,0.94538 -2.44686,0.94538 -0.94538,0 -1.5849,-0.47269 -0.61172,-0.50049 -1.39026,-1.5849 -1.39027,-2.1132 -2.91956,-3.1698 -1.501483,-1.0566 -3.837126,-1.0566 -3.364439,0 -5.422029,2.6415 -2.05759,2.6137 -2.05759,7.17376 0,2.14101 0.5283,3.94835 0.5283,1.77954 1.52929,3.05858 1.00099,1.25124 2.419059,1.91856 1.418069,0.63953 3.114191,0.63953 2.280032,0 3.892735,-1.05661 1.64051,-1.0566 2.89175,-3.22541 0.69513,-1.27904 1.50149,-2.00198 0.80635,-0.72293 1.97417,-0.72293 1.39026,0 2.30784,1.0566 0.91757,1.0566 0.91757,2.25222 z m 35.03465,-6.03374 q 0,3.39224 -1.0566,6.25619 -1.0566,2.86394 -3.05858,4.92153 -2.00198,2.05759 -4.78251,3.1698 -2.78053,1.08441 -6.25619,1.08441 -3.44785,0 -6.20057,-1.11221 -2.75272,-1.11222 -4.78251,-3.16981 -2.00198,-2.08539 -3.05858,-4.89372 -1.02879,-2.83614 -1.02879,-6.25619 0,-3.44785 1.0566,-6.3118 1.0566,-2.86394 3.03077,-4.89373 1.97418,-2.02978 4.78251,-3.11419 2.80833,-1.11221 6.20057,-1.11221 3.44786,0 6.25619,1.11221 2.80833,1.11221 4.81031,3.1698 2.00198,2.05759 3.03078,4.89373 1.0566,2.83614 1.0566,6.25619 z m -7.61865,0 q 0,-4.64348 -2.05759,-7.22937 -2.02978,-2.58589 -5.47764,-2.58589 -2.22442,0 -3.92054,1.16782 -1.69612,1.14002 -2.61369,3.39224 -0.91758,2.25223 -0.91758,5.2552 0,2.97516 0.88977,5.19959 0.91757,2.22442 2.58589,3.42004 1.69612,1.16783 3.97615,1.16783 3.44786,0 5.47764,-2.58589 2.05759,-2.6137 2.05759,-7.20157 z m 21.13201,4.47665 v 6.3396 q 0,2.30784 -1.08441,3.47566 -1.0844,1.14002 -2.75272,1.14002 -1.64051,0 -2.69711,-1.16782 -1.0566,-1.16783 -1.0566,-3.44786 v -21.13201 q 0,-5.11617 3.6981,-5.11617 1.89076,0 2.72492,1.19563 0.83415,1.19563 0.91757,3.53127 1.36246,-2.33564 2.78053,-3.53127 1.44587,-1.19563 3.83712,-1.19563 2.39126,0 4.64349,1.19563 2.25222,1.19563 2.25222,3.1698 0,1.39026 -0.97318,2.30784 -0.94538,0.88977 -2.05759,0.88977 -0.41708,0 -2.02979,-0.5005 -1.5849,-0.5283 -2.80833,-0.5283 -1.66832,0 -2.72492,0.88977 -1.0566,0.86196 -1.64051,2.58589 -0.58391,1.72393 -0.80635,4.11518 -0.22244,2.36345 -0.22244,5.7835 z m 36.73076,6.61765 v -0.75074 q -1.52929,1.75173 -3.03077,2.86394 -1.47368,1.08441 -3.22541,1.64052 -1.72393,0.58391 -3.78152,0.58391 -2.72492,0 -5.06056,-1.14002 -2.30784,-1.16782 -4.00396,-3.30883 -1.69612,-2.141 -2.58589,-5.03275 -0.86196,-2.89175 -0.86196,-6.25619 0,-7.11815 3.47566,-11.0943 3.47566,-3.97616 9.14793,-3.97616 3.28102,0 5.53325,1.14002 2.25223,1.11221 4.39323,3.44785 v -11.20552 q 0,-2.33565 0.91758,-3.53127 0.94538,-1.19563 2.6693,-1.19563 1.72393,0 2.64151,1.11221 0.94538,1.08441 0.94538,3.22541 v 33.47755 q 0,2.16882 -1.00099,3.25322 -1.00099,1.08441 -2.5859,1.08441 -1.55709,0 -2.58589,-1.11221 -1.00099,-1.14002 -1.00099,-3.22542 z m -14.93143,-11.14991 q 0,3.08638 0.94538,5.2552 0.97319,2.16881 2.6415,3.28102 1.66832,1.0844 3.64249,1.0844 2.00198,0 3.64249,-1.02879 1.66832,-1.0566 2.64151,-3.19761 1.00099,-2.16881 1.00099,-5.39422 0,-3.03078 -1.00099,-5.19959 -0.97319,-2.19661 -2.66931,-3.33663 -1.66832,-1.16782 -3.6703,-1.16782 -2.08539,0 -3.7259,1.19562 -1.64052,1.16783 -2.55809,3.39225 -0.88977,2.19661 -0.88977,5.11617 z"
       id="text1"
       style="font-size:56.9452px;font-family:'Arial Rounded MT Bold';-inkscape-font-specification:'Arial Rounded MT Bold, Normal';fill:#999999;stroke-width:3.36983"
       transform="scale(1.2380374,0.80773007)"
       aria-label="Record"
       sodipodi:insensitive="true" />
    <g
       id="text8"
       style="font-size:13.7806px;font-family:'Blackadder ITC';-inkscape-font-specification:'Blackadder ITC, Normal';stroke:#000000;stroke-width:1.46791"
       transform="scale(1.1549033,0.86587337)"
       aria-label="by Anatif Apps World">
      <path
         style="fill:#ff6600;stroke:none"
         d="m 109.99832,268.37525 -0.14803,0.14804 -0.14804,0.0538 -0.24223,0.21532 -0.32299,0.0404 q -0.36335,-0.20859 -1.25156,-0.30952 0,0 -0.45083,0 -0.0807,0 -0.24223,0.0538 l -0.0942,0.28261 h -0.0538 l -0.0538,0.14803 -0.14803,0.14804 0.0538,0.0538 -0.0942,0.0942 v 0.10766 l 0.0942,0.18841 -0.0538,0.0538 q 0.0202,0.0875 -0.0337,0.27588 -0.0538,0.18841 -0.11438,0.26242 v 0.0538 q -0.074,0.0471 -0.22206,0.28261 -0.14803,0.22878 -0.26242,0.29607 -0.0135,0.18168 -0.0538,0.54503 l -0.14803,0.20187 q -0.0336,0.17495 -0.0404,0.48447 l 0.33644,-0.0942 0.0538,-0.0538 h 0.0538 l 0.39027,-0.28261 v -0.0538 q 0.25569,-0.10766 0.39027,-0.0942 v -0.10767 h 0.20186 l 0.13458,-0.0942 0.35662,-0.0538 0.20187,0.0538 0.1884,0.14803 q 0.0942,0.16823 0.0942,0.48448 h -0.0404 v 0.10766 l -0.14804,0.0942 0.0135,0.22878 q -0.12112,0.14804 -0.2557,0.6056 -0.12784,0.42391 -0.30279,0.59213 0.0471,0.33644 -0.20187,0.69307 h -0.0404 l -0.14803,0.1884 q -0.18168,0.10094 -0.40373,0.2557 v 0.13458 l -0.14803,0.10766 v 0.0404 q -0.19514,0.0606 -0.39028,0.12112 -0.25569,0.074 -0.40372,0.0673 l -0.17495,-0.13458 q -0.16149,0.0538 -0.2557,0.0538 -0.55849,0 -0.8411,-0.20186 l -0.0404,-0.0538 -0.0538,0.0538 v 0.0538 h -0.0538 v 0.0404 l -0.0942,0.0538 -0.0404,0.0942 -0.0538,0.0538 h -0.0538 v 0.0538 l -0.18841,0.0404 -0.0538,0.0538 -0.24223,0.0942 -0.29607,-0.0404 -0.0538,-0.20187 -0.0942,-0.0538 v -0.0942 l 0.0538,-0.0538 0.24224,-0.0942 q 0.33644,-0.45083 0.33644,-0.59214 l -0.0404,-0.39027 0.14803,-0.397 q 0.0942,-0.0673 0.43065,-0.5383 -0.0404,-0.20187 -0.0404,-0.24224 0,-0.0404 0.0404,-0.24224 l 0.0538,-0.0538 v -0.0538 l 0.0538,-0.0942 v -0.0538 h 0.0404 v -0.0404 q 0.12785,-0.0942 0.37009,-0.29606 l 0.0135,-0.0807 0.14804,-0.20186 q 0.0538,-0.1615 0.12112,-0.85456 h 0.0404 q 0.0336,-0.16149 0.13457,-0.45756 l -0.0269,-0.0808 q 0.21532,-0.23551 0.33644,-0.49793 -0.007,-0.0404 -0.007,-0.0807 0,-0.12112 0.0808,-0.3499 0.0807,-0.23551 0.0807,-0.3028 0,-0.0269 -0.007,-0.0471 h 0.0538 q 0.0606,-0.14803 0.0404,-0.24224 h 0.0538 q 0.20186,-0.16822 0.59213,-0.49793 l 0.4441,-0.13458 0.33644,0.0404 0.0942,-0.0404 h 0.30279 l 0.10766,-0.0606 0.14804,0.10094 h 0.24224 l 0.29606,0.14803 h 0.57868 q 0.14803,0 0.29607,-0.14803 v -0.0404 l 0.24224,-0.0606 0.1884,0.0404 q 0.0269,0.11439 0.0673,0.35662 z m -2.85974,3.84215 -0.0269,-0.20186 -0.12112,-0.14803 q -0.15476,0.074 -0.45756,0.24223 l -0.0807,0.0942 q -0.37009,0.14803 -0.63251,0.4441 h -0.0538 l -0.0404,0.0942 -0.10766,0.0538 v 0.0942 h -0.0404 l -0.10766,0.10766 -0.0673,0.16149 -0.17495,0.17495 v 0.0942 l -0.0942,0.20186 v 0.10094 q -0.0942,0.1413 -0.0942,0.25569 v 0.57868 l 0.0404,0.0538 0.14803,0.0538 q 0.32972,-0.074 0.74017,-0.0538 0.13458,-0.10766 0.39027,-0.24224 v -0.0538 q 0.0336,-0.0471 0.0942,-0.14803 0.0875,-0.22205 0.28261,-0.66615 0.0807,-0.11439 0.21532,-0.36336 0.0538,-0.26242 0.16149,-0.75363 l -0.0135,-0.0538 z m 7.17963,-0.71325 q -0.10766,0.21532 -0.14803,0.33644 h -0.0538 l -0.0404,0.14803 -0.10766,0.0942 -0.0404,0.10766 -0.14803,0.14803 v 0.0404 l -0.14803,0.24223 -0.29607,0.14804 0.0404,0.0538 -0.0673,0.0673 q -0.0606,0.27588 -0.17495,0.82764 l -0.1884,0.18841 -0.0538,0.24223 -0.0942,0.10766 q 0.0202,0.16149 -0.0538,0.33644 l -0.10093,0.10766 v 0.0942 h -0.0942 l -0.10766,0.33644 q -0.13458,0.16822 -0.24224,0.20186 v 0.0538 q -0.24224,0.27588 -0.18841,0.61905 l -0.10766,0.16149 v 0.0942 q -0.074,0.14803 -0.29607,0.397 v 0.10766 l -0.0942,0.0404 v 0.10766 l -0.14803,0.0942 v 0.0942 h -0.0538 q -0.007,0.16149 -0.24224,0.65942 -0.11439,0.0673 -0.29607,0.22878 l 0.0404,0.10766 -0.0404,0.13458 -0.1884,0.14803 -0.0135,0.0673 q -0.0336,0.0269 -0.28261,0.0269 l -0.0942,0.0538 v 0.14803 q -0.3028,0.2557 -0.3499,0.39027 h -0.0606 l -0.0404,0.0942 -0.14803,0.10767 -0.24224,0.0471 -0.10766,0.0942 -0.0404,0.10766 -0.3499,0.14804 h -0.0404 l -0.0538,0.0942 q -0.27588,0.0673 -0.83437,0.20186 -0.18168,0.0404 -0.78055,0.0404 -0.15476,-0.0404 -0.15476,-0.0404 -0.12785,-0.16822 -0.39027,-0.29606 l -0.10766,-0.14804 v -0.20186 l -0.0942,-0.19514 v -0.25569 l 0.0538,-0.0404 v -0.20186 l 0.20186,-0.25569 q 0.24224,-0.0337 0.33644,-0.0808 h 0.34317 q 0.0135,0 0.29607,0.0404 l 0.0942,0.10766 q 0.074,0.22205 0.0538,0.33644 l -0.0942,0.14804 q -0.20186,0.13457 -0.43064,0.13457 l -0.21533,-0.0404 -0.15476,-0.0942 h -0.0404 v 0.14803 l -0.0942,0.14803 h 0.13457 l 0.15476,0.24897 h 0.10766 l 0.0404,0.0942 0.20186,0.10767 q 0.38354,-0.0202 0.74017,-0.14804 0.0471,-0.0606 0.14803,-0.14803 0.31626,0.0606 0.68634,-0.24897 v -0.0538 l 0.13458,-0.0538 v -0.0404 l 0.20186,-0.20187 h 0.0538 l 0.0942,-0.20186 h 0.14803 l 0.3028,-0.33644 q 0.13457,-0.21532 0.29607,-0.68634 0.1884,-0.18841 0.1884,-0.5383 h 0.0538 v -0.0942 l 0.0538,-0.10766 0.0942,-0.0404 0.14803,-0.3028 h 0.0404 v -0.10766 l 0.14804,-0.13457 0.0538,-0.49794 q -0.074,-0.18167 -0.0538,-0.29606 h 0.0538 q 0.0471,-0.10767 0.14803,-0.18841 -0.17495,-0.0942 -0.49793,-0.0538 -0.12785,-0.0538 -0.2557,-0.11439 -0.12784,-0.0538 -0.22878,-0.18168 -0.18167,-0.0606 -0.20186,-0.0538 L 109.783,274.6465 h -0.0404 q 0.0202,-0.16149 -0.24223,-0.57867 l -0.0538,-0.2557 q 0.0135,-0.0807 0.0875,-0.32298 0.0673,-0.20187 0.0606,-0.31625 l 0.14803,-0.0538 0.0269,-0.10766 0.074,-0.0404 v -0.0538 l 0.24223,-0.18841 0.10767,-0.24223 v -0.10766 l 0.0942,-0.14804 -0.0538,-0.14803 0.0538,-0.14804 -0.0538,-0.0942 q -0.2557,0.0202 -0.45083,0.14803 -0.074,0.22206 -0.18841,0.29607 -0.22205,0.0336 -0.5383,0.24224 h -0.0538 l -0.24224,-0.0404 -0.0538,-0.0538 0.0538,-0.14804 0.0942,-0.0538 0.10766,0.0538 0.24224,-0.0942 0.14803,-0.14803 0.0404,-0.10767 q 0.11439,-0.14803 0.39027,-0.39027 h 0.11439 l 0.29607,-0.1884 q 0.10093,0.0135 0.33644,-0.0404 0.26242,-0.0538 0.34989,-0.0538 0.10094,0 0.33644,0.0942 0.074,0.28261 0.20187,0.57867 h -0.0538 l -0.0942,0.0538 v 0.20187 h -0.0538 v 0.0404 h -0.0404 l -0.0269,0.2557 -0.0673,0.13457 0.0404,0.2557 -0.0942,0.33644 -0.10766,0.0942 v 0.10766 h -0.0404 l -0.14803,0.24897 h -0.0538 q 0.0135,0.0538 -0.0404,0.26915 0.10093,0.26242 0.1884,0.32298 v 0.0404 q 0.10766,0.0336 0.24224,0.20186 l 0.0538,0.14803 0.0942,0.0538 0.39027,-0.0673 q 0.14131,-0.10766 0.40373,-0.33644 l 0.0404,-0.0942 0.20186,-0.0538 V 274.014 q 0.0807,-0.0875 0.16149,-0.37682 0.10766,-0.37008 0.13458,-0.42391 l 0.19513,-0.18841 0.0942,-0.40373 0.10766,-0.13457 v -0.0538 h 0.0404 l 0.0538,-0.14804 h 0.0538 l 0.0942,-0.0538 0.0538,-0.1884 h 0.0404 v -0.14804 l 0.0538,-0.0538 v -0.33644 l 0.14803,-0.14803 q 0.14804,-0.0404 0.4441,-0.14804 h 0.29607 z"
         id="path13" />
      <path
         style="fill:#ff2a7f;stroke:none"
         d="m 129.72719,265.89232 q -0.14804,0.21533 -0.29607,0.49794 -0.46429,0.24896 -0.98914,0.33644 l -0.1884,0.14803 0.0404,0.0942 h -0.0404 v 0.14804 q -0.10766,0.22205 -0.59214,0.794 v 0.19513 q -0.17495,0.0807 -0.49793,0.24224 l -0.0942,0.10766 -0.0538,0.29607 h 0.0538 l 0.0538,0.28261 q -0.0875,0.32298 -0.20187,0.59213 l -0.14803,0.0942 -0.24224,0.64596 0.14804,0.0942 h 0.59213 q 0.41719,-0.12785 0.57868,-0.18841 l 0.0807,-0.20187 -0.0807,-0.20186 -0.0942,-0.0404 -0.0404,-0.20187 0.57868,-0.14803 0.24224,0.0942 0.25569,0.2557 v 0.29606 q -0.0538,0.19514 -0.0538,0.18841 l -0.33644,0.0538 -0.10766,0.0942 -0.0942,0.20186 q -1.69566,0.31625 -2.15995,0.54503 l -0.10766,0.24224 q 0.0404,0.14803 0.14803,0.3499 l -0.14803,0.1884 -0.0404,0.78055 q -0.23551,0.20859 -0.20187,0.40373 -0.29607,0.46428 -0.29607,1.15062 v 0.17495 l 0.0538,0.0538 -0.0538,0.0942 0.0538,0.0538 0.0404,0.33644 q 0.20186,-0.0673 0.69306,-0.37008 0.43738,-0.26242 0.6998,-0.31625 0.007,-0.0135 0.57868,-0.4441 v -0.0404 l 0.10766,-0.10766 0.0942,-0.3028 0.18841,-0.24223 0.20186,0.0538 0.20187,-0.14804 0.28261,0.29607 q 0,0.22878 -0.13458,0.45083 h -0.40373 l -0.24224,0.24224 -0.0942,0.0404 -0.0942,0.2557 q -0.20187,0.12784 -0.59214,0.39027 -0.52484,0.38354 -1.08333,0.68634 v 0.0538 q -0.36336,0 -0.74017,0.1884 l -0.49794,-0.16149 -0.28261,-0.22878 -0.0538,-0.49793 q -0.20859,-0.0875 -0.48447,-0.28261 v -0.20186 l -0.10766,-0.20187 q 0.14803,-1.02278 0.68634,-1.32557 l 0.0538,-0.0942 q 0,-0.397 0.24223,-0.59213 l -0.0942,-0.24224 0.0942,-0.4441 0.3499,-0.29607 v -0.24223 l -0.14803,-0.10094 q -0.37681,-0.0606 -0.75363,-0.12784 -0.4441,-0.0808 -0.73344,-0.22205 h -0.14803 q -0.2557,0.28933 -0.56522,0.78054 -0.45756,0.71998 -0.51139,0.80073 -0.10766,0.12784 -0.29607,0.39027 -0.0673,0.0269 -0.72671,0.68633 v 0.0942 l -0.14803,0.0942 -0.0942,0.20187 -0.26242,0.20859 h -0.0942 q -0.22878,0.37008 -0.74017,0.68634 -0.15477,0.0538 -0.39027,0.1884 -0.22205,0.0337 -0.48448,0.20187 l -0.14803,0.1884 -0.3499,0.20187 -0.48447,-0.0942 q -0.2086,-0.18168 -0.50466,-0.29607 l -0.0404,-0.0538 -0.49793,-0.18841 v -0.25569 l -0.0942,-0.0942 q -0.0269,-0.1884 -0.0269,-0.26915 0,-0.50466 0.47102,-1.44669 l 0.18841,-0.10766 0.20186,-0.24224 v -0.20187 l 0.34317,-0.28261 h 0.0538 l 0.24224,-0.25569 0.14803,-0.0404 0.0538,-0.10766 q 0.24897,-0.12112 0.74017,-0.39028 l 0.18841,0.0538 q 0.37681,0.53157 0.37681,1.10352 0,0.10766 -0.0269,0.32298 l -0.10766,0.14804 -0.0404,0.39027 -0.10766,0.14803 -0.28261,0.0404 -0.14803,-0.14803 -0.10766,-0.39027 -0.24224,-0.0942 q 0.0269,-0.13458 0.0269,-0.39027 0,-0.17495 -0.0673,-0.44411 l -0.20187,0.0538 -0.4441,0.33644 -0.0942,0.14804 v 0.20186 l -0.2086,0.0942 v 0.24223 q -0.15476,0.12112 -0.29606,0.37009 -0.12112,0.20186 -0.24224,0.41045 l -0.0404,0.3028 0.1884,0.53831 0.29607,0.25569 0.54503,0.14803 q 0.18841,-0.12784 0.59214,-0.34989 v -0.0538 q 0.4912,-0.21533 1.31885,-0.98914 0.10766,-0.12112 0.34989,-0.33644 0.12112,-0.0606 0.37009,-0.20186 0.16822,-0.10766 0.86129,-0.83438 l 0.0942,-0.24223 0.20186,-0.14804 0.24224,-0.5383 0.24224,-0.14804 q 0.0942,-0.20186 0.29606,-0.45083 l -0.0538,-0.0942 h -0.48447 q -0.15476,0.14131 -0.51812,0.22205 -0.40373,0.0875 -0.54503,0.18168 l -0.0135,0.24897 0.0942,0.0404 h 0.44411 l 0.0942,0.14803 -0.0538,0.0942 q -0.26243,0.0134 -0.78054,0.10766 l -0.18841,-0.0538 q -0.15476,-0.17495 -0.26242,-0.20187 v -0.13457 l 0.10766,-0.10767 -0.0538,-0.15476 0.0942,-0.24223 v -0.14804 q 0.16149,-0.0673 0.45083,-0.0404 l 0.14803,-0.10766 h 0.20187 l 0.5383,-0.24224 q 0.0807,0.007 0.36336,0.0336 0.22205,0.0202 0.36335,0.0202 0.0673,0 0.17495,-0.0202 0.13458,-0.0269 0.17495,-0.0336 l 0.24224,-0.39027 0.24896,-0.14803 0.39028,-0.63251 q 0.2355,-0.074 0.6325,-0.42392 0.57868,-0.50466 0.6056,-0.52484 0.37681,-0.27589 0.92857,-0.48448 h 0.0942 l 0.45083,-0.29607 h 0.24223 l 0.49793,-0.24223 h 0.18841 l 0.0538,-0.14804 0.24224,-0.0538 0.0942,-0.0942 -0.57868,0.0942 q -0.1884,-0.074 -0.56522,-0.0404 h -0.47101 l -0.34317,0.13458 h -0.20187 q -0.35662,0 -1.03623,-0.17495 -0.67961,-0.17495 -1.03624,-0.17495 -0.12112,0 -0.34317,0.007 -0.22205,0.007 -0.33644,0.007 l -0.0538,0.0942 q -0.18168,0.0673 -0.47774,0.29607 -0.28934,0.22878 -0.45083,0.29606 l -0.59214,-0.0538 -0.18841,0.10766 -0.0538,0.14804 h -0.0538 l -0.0942,0.24224 h -0.0942 q -0.2086,0 -0.52485,0.074 -0.43064,0.10093 -0.51812,0.11439 -0.24224,-0.074 -0.72671,-0.1884 l -0.10766,-0.14804 h -0.0404 q -0.0807,-0.45756 -0.0807,-0.69979 0,-0.2557 0.17495,-0.63251 l 0.29607,-0.0404 0.0404,-0.14803 q 0.16149,-0.10093 0.61905,-0.20186 0.43064,-0.0942 0.66615,-0.0942 0.6056,0 1.62837,0.24224 l 0.13458,0.0942 h 0.49793 l 0.14804,-0.0942 q 0.12111,-0.26915 0.29606,-0.39027 v -0.0538 h 0.15477 l 0.24223,-0.10093 0.0942,-0.14804 h 0.20186 q 0.12785,-0.11439 0.38354,-0.1884 0.29607,-0.0875 0.397,-0.14804 v -0.0538 q 0.13458,-0.074 0.32299,-0.0538 h 0.12111 l 0.14804,0.10766 0.0942,0.24224 -0.0538,0.14803 -0.24224,0.15477 q -0.34317,-0.11439 -0.37681,-0.11439 -0.24224,0 -0.65269,0.1884 -0.32299,0.16149 -0.63924,0.31626 l -0.24897,0.24223 0.0538,0.0538 q 0.3499,-0.0538 0.3028,-0.0538 0.0471,0 0.56522,0.10767 1.16408,0.24223 1.64183,0.24223 0.0606,0 0.16822,-0.0202 0.13458,-0.0269 0.17495,-0.0336 -0.12785,0.0135 0.40373,0.0135 0.10093,0 0.22205,-0.0404 0.15476,-0.0538 0.20859,-0.0673 0,0 0.43064,0 0.15477,0 0.96895,-0.12112 0.8411,-0.12785 0.96222,-0.17495 l 0.14804,0.0404 z m -2.45602,1.42651 q -0.24897,0 -0.794,0.33644 h -0.15476 q -0.49793,0.21532 -0.78054,0.50466 -0.50466,0.14131 -0.63251,0.4441 l -0.14803,0.0404 v 0.10766 q -0.2557,0.10093 -0.52485,0.47774 -0.29607,0.41719 -0.51139,0.54504 l -0.0404,0.14803 q 0.70652,0.0538 1.07661,0.30953 l 0.48447,0.0404 0.24224,-0.3499 0.4441,-0.20186 0.10766,-0.14804 q -0.0135,-0.0404 -0.0135,-0.13457 0,-0.30953 0.16149,-0.794 0.19514,-0.23551 0.63924,-0.63924 0.0135,-0.11439 0.19513,-0.33644 0.2086,-0.26242 0.24897,-0.3499 z m -4.92549,-1.18427 -0.0404,-0.0942 -0.59213,-0.0538 -0.14804,-0.0942 h -0.68634 q -0.5854,0 -1.04296,0.20187 -0.14804,0.0673 -0.39027,0.39027 l -0.0942,0.0538 -0.0538,0.13458 0.14804,0.25569 0.0538,0.0404 0.0404,0.10766 q 0.24224,0.0404 0.25569,0.0404 0.0807,0 0.28934,-0.0269 0.18841,-0.0202 0.28934,-0.0135 l 0.0538,-0.10766 q 0.59887,-0.12111 0.89493,-0.29606 0.074,-0.0673 0.24224,-0.18841 0.3028,-0.0808 0.78054,-0.3499 z m 11.04871,5.66566 -0.0404,0.0538 v 0.24896 l -0.0538,0.0538 -0.10766,0.24897 0.0404,0.0942 -0.0538,0.0538 q -0.0202,0.15477 -0.10094,0.43065 l 0.0269,0.0673 q -0.13458,0.18167 -0.31625,0.54503 -0.18841,0.397 -0.18841,0.55849 l -0.10093,0.14803 0.0269,0.19514 q 0.29607,-0.21532 0.4441,-0.42391 l 0.17495,-0.074 0.20859,0.0538 q -0.0269,0.1413 -0.24896,0.40373 -0.2557,0.30279 -0.32971,0.45083 l -0.0942,0.0606 v 0.0404 l -0.32971,0.20859 q -0.22205,-0.0202 -0.51139,-0.24896 -0.0336,-0.0606 -0.15476,-0.15477 l -0.0673,-0.14803 v -0.15476 l -0.0538,-0.0942 0.0404,-0.11439 q -0.0135,-0.14803 -0.0135,-0.14803 0,-0.28261 0.28261,-0.794 0.28934,-0.51812 0.26915,-0.91512 0.13458,-0.24223 0.19513,-0.59213 l -0.1413,-0.0538 -0.0538,0.0538 v 0.0404 l -0.3028,0.20859 v 0.0538 l -0.19513,0.0404 v 0.0538 q -0.22205,0.074 -0.3028,0.19513 v 0.10766 q -0.0875,0.0606 -0.35663,0.10094 v 0.0942 h -0.0942 l -0.0471,0.0538 h -0.0538 l -0.0538,0.0942 v 0.11439 l -0.14804,0.0404 v 0.0942 l -0.074,0.15476 -0.0135,0.23551 q -0.0875,0.12785 -0.16149,0.41719 -0.074,0.28261 -0.15476,0.41045 -0.12785,0.0807 -0.26243,0.28934 -0.15476,0.24224 -0.23551,0.31626 -0.24223,0.0538 -0.74016,0.16149 l -0.16822,-0.0673 -0.23551,0.0673 -0.2557,-0.17495 -0.11439,-0.26242 0.0538,-0.23551 0.15477,-0.0538 q 0.20859,0.10093 0.34316,0.1884 l 0.24897,-0.0404 0.16822,-0.10766 0.0404,-0.28934 0.0538,-0.0404 q -0.007,-0.24224 0.0538,-0.43065 0.10094,-0.1884 0.28934,-0.57867 0.0673,-0.32299 0.3028,-0.94877 l -0.0404,-0.15476 0.0404,-0.10766 -0.0942,-0.0942 -0.15477,0.0538 v 0.0404 l -0.20186,0.0538 -0.14131,0.0942 q -0.30279,0.0471 -0.51138,0.11438 l -0.24897,-0.11438 -0.0538,-0.14804 0.0538,-0.0942 q 0.71325,0.0135 1.50725,-0.45756 h 0.10766 l 0.32971,-0.23551 0.16823,-0.0269 0.14803,0.0673 q 0.29607,0.3028 0.24896,0.49794 l -0.0942,0.0538 v 0.10093 l -0.10093,0.14803 q 0.0135,0.0538 -0.0269,0.19514 l 0.0269,0.10766 0.10093,0.0538 q 0.2557,-0.0875 0.55176,-0.3028 v -0.0538 h 0.0538 l 0.13458,-0.0942 h 0.0606 l 0.14803,-0.11439 0.0538,-0.0942 0.19514,-0.0404 v -0.0538 q 0.20186,-0.10766 0.35663,-0.15476 l 0.0404,-0.0538 h 0.11439 q 0.20186,-0.0808 0.3028,-0.19514 h 0.14803 l 0.0404,0.10094 h 0.0606 q 0.11439,0.1413 0.18841,0.397 z m 5.69257,-0.32298 -0.0538,0.0942 -0.0942,0.0538 v 0.0538 l -0.39028,0.0404 -0.0538,0.10766 v 0.13458 l -0.0404,0.0538 v 0.14803 h -0.0538 v 0.0538 l -0.0807,0.0942 -0.0269,0.12112 -0.10766,0.0807 0.0404,0.0942 q -0.0606,0.10766 -0.16822,0.48447 l -0.20186,0.24224 h 0.0538 v 0.0538 q -0.22205,0.14803 -0.3499,0.30279 l -0.0269,0.0807 0.0269,0.0673 -0.0538,0.4441 h -0.0404 v 0.0942 l -0.0942,0.14804 0.0404,0.0942 0.14803,0.0404 q 0.17495,-0.19513 0.54503,-0.33644 l 0.0808,0.14804 -0.12785,0.25569 q -0.29607,0.18841 -0.49793,0.48447 -0.40373,0.11439 -0.53831,0.0942 v -0.0404 h -0.14803 q -0.12785,-0.15476 -0.29607,-0.25569 0.0135,-0.15476 -0.0404,-0.43064 l -0.10766,-0.10766 h -0.0404 q -0.30953,0.26242 -0.3499,0.39027 l -0.24224,0.0538 -0.0942,0.14803 -0.28261,0.10766 -0.16822,-0.0538 -0.16149,0.0269 q -0.24897,-0.15477 -0.43065,-0.17495 l -0.1884,-0.14804 q -0.20187,-0.45756 -0.20187,-0.65942 0,-0.10766 0.0538,-0.26915 h 0.0404 q 0.0336,-0.0942 0.0942,-0.34317 l -0.0404,-0.10766 v -0.0538 q 0,-0.0673 0.0807,-0.19514 0.0875,-0.12785 0.0942,-0.19513 0.40373,-0.28261 0.48448,-0.83438 0.1413,-0.0942 0.22205,-0.20186 0.24224,-0.0807 0.3499,-0.13458 h 0.0538 q 0.14803,-0.17495 0.33644,-0.29606 l 0.0538,-0.10767 0.4441,-0.14803 0.39027,0.0538 0.14804,0.0942 h 0.1884 l 0.20187,-0.1884 h 0.1884 l 0.2557,0.0942 0.19513,-0.0538 0.10766,0.0538 0.0404,0.0942 0.34989,-0.0404 0.14804,-0.10766 0.0942,0.0538 0.14804,-0.0538 q 0.0606,0.0606 0.0942,0.20187 z m -1.52744,0.20186 -0.29607,-0.10766 q -0.26915,0.074 -0.48447,0.0538 l -0.3499,0.14803 -0.18841,0.18841 q -0.0202,0.10766 -0.24223,0.64597 -0.21533,0.5383 -0.2557,0.56522 l -0.0269,0.14803 -0.13458,0.12112 -0.0269,0.0942 0.0269,0.0942 -0.14803,0.2086 v 0.17495 l -0.0807,0.0807 v 0.13458 l -0.0538,0.0942 v 0.0538 l -0.14131,0.0538 v 0.18841 l 0.0404,0.0538 0.20859,0.0942 q 0.16149,-0.0538 0.48447,-0.29606 h 0.0538 l 0.14803,-0.0942 q 0.074,-0.10766 0.24224,-0.29607 v -0.0404 l 0.0942,-0.0538 q 0.14803,-0.26915 0.4441,-0.78727 v -0.0538 l 0.14803,-0.14803 q 0.0202,-0.22205 0.17495,-0.48448 -0.0135,-0.0471 0.0404,-0.25569 l 0.10766,-0.0404 v -0.0538 l -0.0269,-0.0538 q 0.0404,-0.0942 0.14804,-0.28261 h 0.0404 z"
         id="path14" />
      <path
         style="fill:#00ccff;stroke:none"
         d="m 142.87528,271.14079 -0.0404,0.24224 -0.14803,0.0404 q -0.0673,-0.0135 -0.34317,-0.0807 -0.20186,-0.0538 -0.34317,-0.0538 -0.0135,0 -0.25569,0.0404 l -0.0404,0.0538 h -0.28261 l -0.14804,0.13458 q -0.0336,0.17495 -0.16149,0.40373 0.0202,0.19513 -0.0538,0.4441 l -0.0942,0.0942 0.0538,0.2557 -0.0942,0.0404 -0.0538,0.0942 0.0538,0.10766 -0.10766,0.12112 -0.0404,0.20187 -0.0538,0.0135 -0.0942,0.20187 v 0.0404 l -0.20187,0.10766 0.0538,0.15476 -0.10766,0.0942 -0.0404,0.14803 -0.15476,0.20187 v 0.0942 l 0.0404,0.0404 h 0.11439 v 0.10766 l -0.0538,0.0404 q 0.0538,0.12784 0.0807,0.30952 l 0.26916,-0.0538 0.10766,0.0673 0.0807,-0.0673 0.10766,0.0404 q 0.14131,-0.0538 0.43065,-0.14803 l 0.14803,-0.14803 0.10766,-0.28261 v -0.2557 q 0.11439,-0.28934 0.24224,-0.42391 l -0.10766,-0.0673 0.10766,-0.0942 v -0.0538 l 0.14803,-0.0942 h 0.14804 q 0.15476,0.0404 0.14803,0.0404 l 0.13458,0.29607 -0.0942,0.15476 v 0.14804 q -0.16149,0.22205 -0.33644,0.29607 v 0.0538 l -0.14803,0.1884 q -0.0269,0.22878 -0.17495,0.37682 l -0.16149,0.10766 -0.10766,0.14803 q -0.29607,0.16149 -0.48448,0.14803 l -0.0538,0.10766 h -0.0942 l -0.0538,-0.0538 q -0.14131,0.0336 -0.20187,0.0942 l -0.24223,0.0538 v -0.0538 q -0.31626,-0.0538 -0.49121,-0.0404 -0.0538,-0.0875 -0.2355,-0.19513 -0.20187,-0.12112 -0.26243,-0.19514 v -0.25569 l -0.0404,-0.0404 v -0.20187 q 0.15476,-0.41046 0.14803,-0.5383 l 0.0807,-0.0807 q 0.0807,-0.1413 0.0538,-0.37008 l 0.17495,-0.22878 q -0.007,-0.0606 0.0942,-0.51139 l 0.12112,-0.13458 -0.0538,-0.10766 q 0.074,-0.26242 0.21532,-0.78054 h 0.0942 q 0.0606,-0.0808 0.10093,-0.3499 l -0.0606,-0.0538 -0.24224,0.0538 q -0.1413,0.11439 -0.24224,0.14804 l -0.14803,-0.0404 q -0.27588,0.13458 -0.5383,0.0942 l 0.0538,-0.20187 q 0.16822,-0.13457 0.39027,-0.24224 h 0.0942 l 0.0538,-0.0942 h 0.14803 l 0.18841,-0.0942 0.12112,0.0269 q 0.26242,-0.0471 0.46429,-0.12784 l 0.0673,-0.20187 h 0.0942 l 0.20186,-0.24224 0.0404,-0.14803 q 0.13457,-0.0808 0.20186,-0.10766 l 0.0404,-0.14803 0.14804,0.0538 0.0538,-0.0538 v -0.0942 l 0.20186,-0.0942 v -0.0942 l 0.0942,-0.14804 h 0.0942 l 0.0538,0.0404 0.0942,-0.0404 v 0.33644 l -0.0942,0.0538 v 0.0404 l -0.0538,0.0538 v 0.14803 l -0.20187,0.24224 q -0.0202,0.25569 -0.17494,0.46428 0.26242,0.0202 0.52484,0.0808 0.12112,-0.0404 0.37682,-0.0404 0.27588,0 0.45755,0.0404 z m 3.34422,-2.24069 -0.0942,0.0807 q -0.0404,0.29606 -0.20186,0.40373 v 0.13457 l -0.10766,0.12112 -0.0538,0.18841 -0.17495,0.0404 q -0.0269,0.20859 -0.13458,0.33644 -0.14803,0.0875 -0.26915,0.22878 l -0.17495,0.0538 -0.12112,-0.28261 q 0.0135,-0.14803 0.0135,-0.4441 0.18168,-0.29607 0.0942,-0.61905 0.0942,-0.23551 0.24224,-0.40373 l 0.24224,-0.0942 0.0538,-0.0538 q 0.10766,-0.0538 0.22878,-0.0538 h 0.21532 q 0.14803,0.0673 0.24224,0.20186 z m -0.65943,5.15427 q 0.0135,0.11439 -0.0942,0.33644 l -0.0942,0.0538 -0.0538,0.0942 h -0.0538 l -0.0942,0.10766 -0.20186,0.0404 q -0.0202,0.0471 -0.0875,0.13457 -0.0673,0.0875 -0.0875,0.13458 l -0.16149,0.12112 -0.20187,0.0538 -0.0404,0.0538 -0.20186,0.0404 -0.0538,0.0538 -0.24897,-0.0942 q -0.3028,0.0269 -0.59213,-0.10766 v -0.0404 q -0.0538,-0.0807 -0.0942,-0.10766 l -0.0942,-0.0404 q -0.12112,-0.21532 -0.12112,-0.43064 l 0.0673,-0.16149 q 0.10766,-0.074 0.36335,-0.55177 0.16822,-0.30952 0.33644,-0.62578 0.0135,-0.16149 0.22878,-0.74016 v -0.0942 l 0.0538,-0.0538 v -0.0538 h 0.0606 l 0.10766,-0.21532 -0.0135,-0.21532 -0.0538,-0.0538 q -0.19514,0.0202 -0.34317,0.14803 v 0.0538 q -0.26916,0.0807 -0.39027,0.13458 l -0.10766,0.10766 q -0.13458,0.0202 -0.28261,0.0942 l -0.10767,-0.0135 -0.0942,-0.0807 -0.0269,-0.10766 0.0269,-0.13458 q 0.23551,-0.18841 0.39027,-0.21532 0.21532,-0.0404 0.43065,-0.0808 0.0875,-0.0404 0.25569,-0.12111 0.397,-0.17495 0.98914,-0.17495 0.0135,0 0.10093,0.0202 0.0875,0.0202 0.10093,0.0202 0.12112,0.12112 0.18841,0.29607 h 0.0538 q 0.0538,0.0875 0.0538,0.36335 0,0.0269 -0.0404,0.22878 -0.0471,0.0336 -0.21532,0.24224 l -0.14803,0.0538 -0.0404,0.14803 h -0.0538 l -0.0942,0.0942 q 0.0202,0.19513 -0.0538,0.4441 h -0.0404 q -0.0269,0.16822 -0.10766,0.29607 l -0.14804,0.13457 q -0.16149,0.51812 -0.14803,0.55849 h -0.0404 q -0.0135,0.12112 -0.0673,0.3499 l 0.0135,0.16149 q 0.20186,-0.0135 0.55176,-0.21532 0.35663,-0.20859 0.43064,-0.39027 l 0.16149,-0.0942 0.12112,-0.0135 z m 7.43534,-5.6522 -0.0606,0.14803 q -0.24897,0.14804 -0.48448,0.44411 h -0.20186 q -0.21532,-0.10767 -0.24224,-0.14804 h -0.0538 l -0.0404,-0.20186 0.0942,-0.0942 v -0.34989 l -0.14803,-0.19514 h -0.0538 v -0.10766 q -0.0673,-0.0538 -0.22205,-0.12112 -0.15477,-0.0673 -0.22206,-0.12112 -0.22877,0.0404 -0.68633,0.14804 -0.24897,0.24896 -0.39027,0.20186 l -0.0404,0.0471 -0.11439,0.3499 0.0606,0.18841 -0.0606,0.20186 -0.14803,0.0942 -0.0404,0.20187 -0.20187,0.0942 q 0.0269,0.16822 -0.0404,0.29607 l -0.0538,0.0538 v 0.18841 q -0.074,0.0538 -0.14804,0.20186 v 0.14803 h -0.0538 q 0.007,0.22878 -0.0942,0.63251 l -0.14803,0.0538 q -0.0807,0.17495 -0.18841,0.24897 l -0.0942,0.33644 q 0.1884,-0.0135 0.53157,0.0336 0.38355,0.0606 0.54504,0.0606 0.22205,-0.0673 0.30279,-0.10766 v -0.0404 h 0.0538 l 0.0404,-0.0942 0.24223,-0.0942 0.14804,0.0942 0.0538,0.0942 -0.0538,0.14803 -0.14804,0.0404 -0.17495,0.1884 q -0.27588,0.0202 -0.66615,0.14804 -0.43737,-0.17495 -0.83437,-0.13458 l -0.0942,0.0942 -0.0538,0.12112 v 0.13458 l 0.0538,0.10766 q -0.0807,0.21532 -0.0538,0.48447 l -0.0942,0.14804 v 0.14803 l -0.0538,0.0538 v 0.14803 l -0.0942,0.14804 v 0.0404 h -0.0538 v 0.0538 h -0.0538 l -0.0942,0.45083 q -0.26916,0.39027 -0.24224,0.57868 h -0.0538 v 0.0538 h -0.0404 q -0.0673,0.0538 -0.11439,0.41046 -0.0471,0.32971 -0.0336,0.47774 l -0.0538,0.0404 v 0.0538 q -0.0807,0.0942 -0.20186,0.29606 h -0.0404 l -0.0538,0.14804 -0.0942,0.0404 0.0538,0.25569 -0.10766,0.24224 -0.19514,0.15476 v 0.0404 q -0.10093,0.16822 -0.25569,0.29606 l -0.0942,0.3499 h -0.0942 q -0.0875,0.31626 -0.21532,0.51139 -0.18168,0.2557 -0.22878,0.36336 -0.10093,0.074 -0.33644,0.20186 v 0.0538 q -0.17495,0.18168 -0.4441,0.39027 l -0.0538,0.0942 h -0.0538 l -0.0404,0.0538 -0.0942,0.0404 v 0.0538 l -0.49793,0.0942 -0.20186,-0.0404 q -0.32972,0.0942 -0.43738,0.0942 0.0269,0 -0.29606,-0.0538 v -0.0404 l -0.20187,-0.10766 -0.0404,-0.0942 -0.10766,-0.0538 0.0538,-0.28261 -0.0538,-0.10766 h -0.0942 q 0.0538,-0.074 0.0942,-0.29607 0.11439,-0.0942 0.20186,-0.33644 l 0.18841,-0.14804 h 0.0538 q 0.0538,0.34317 0.0538,0.78055 -0.0336,0.15476 -0.0538,0.20186 l 0.0942,0.0538 0.80073,0.0404 0.0942,-0.0404 0.0942,-0.14803 q 0.0673,-0.0269 0.20186,-0.10766 l 0.0538,-0.0942 0.13458,-0.0942 0.0538,-0.10766 0.14803,-0.0942 v -0.0404 l 0.3499,-0.25569 0.13458,-0.29607 0.0538,-0.0404 v -0.10766 q 0.0942,-0.15477 0.20186,-0.47775 0.12112,-0.36336 0.0942,-0.49793 h 0.0538 l 0.0404,-0.0538 v -0.3499 l 0.10766,-0.18841 q -0.0202,-0.10766 0.0404,-0.22878 0.11439,-0.0807 0.14804,-0.17495 -0.0269,-0.16149 -0.0269,-0.25569 0,-0.23551 0.33644,-1.06315 h 0.0538 l -0.0538,-0.33644 0.0808,-0.11439 0.11439,-0.0404 v -0.14804 l 0.14803,-0.20186 q 0.007,-0.21532 0.19514,-0.6527 0.1413,-0.32971 0.28933,-0.66615 h 0.0538 v -0.0942 q -0.27588,-0.0808 -0.68633,-0.0538 l -0.26243,0.0942 q -0.20859,-0.0606 -0.43064,-0.0404 l -0.20187,0.0942 -0.24223,-0.0942 v -0.0538 l -0.0538,-0.0538 q 0.0606,-0.0606 0.20186,-0.0942 l 0.0942,-0.0942 q 0.0673,0.0202 0.39028,-0.10766 0.19513,0.0807 0.59886,0.0807 0.47102,0 0.68634,-0.17494 h 0.0942 l 0.0538,-0.0404 0.0404,-0.0942 q 0.0538,-0.24224 0.20187,-0.70653 0.0606,-0.0942 0.14803,-0.28261 0.0135,-0.13457 0.0538,-0.39027 0.0673,-0.30952 0.18841,-0.74016 v -0.0538 l 0.18841,-0.1884 0.0807,-0.21532 0.17495,-0.18841 q -0.0202,-0.12112 0.0942,-0.45083 l 0.0538,-0.0404 q 0.12112,0 0.18841,-0.0135 l 0.0538,-0.0942 q 0.40373,-0.0337 0.59887,-0.18841 l 0.0942,-0.14803 0.24224,-0.0538 0.0538,-0.0404 q 0.48447,-0.0807 0.74017,-0.0807 0.0673,0 0.24223,0.0202 0.15477,0.0135 0.24224,0.007 v 0.0942 q 0.19514,0.0538 0.4441,0.20187 v 0.0404 h 0.0538 v 0.10766 q 0.26243,0.15477 0.43065,0.45083 l 0.0538,0.18841 z"
         id="path15" />
      <path
         style="fill:#ff7f2a;stroke:none"
         d="m 165.61192,265.89232 q -0.14803,0.21533 -0.29607,0.49794 -0.46428,0.24896 -0.98913,0.33644 l -0.18841,0.14803 0.0404,0.0942 h -0.0404 v 0.14804 q -0.10766,0.22205 -0.59213,0.794 v 0.19513 q -0.17495,0.0807 -0.49794,0.24224 l -0.0942,0.10766 -0.0538,0.29607 h 0.0538 l 0.0538,0.28261 q -0.0875,0.32298 -0.20186,0.59213 l -0.14804,0.0942 -0.24223,0.64596 0.14803,0.0942 h 0.59214 q 0.41718,-0.12785 0.57867,-0.18841 l 0.0807,-0.20187 -0.0807,-0.20186 -0.0942,-0.0404 -0.0404,-0.20187 0.57867,-0.14803 0.24224,0.0942 0.2557,0.2557 v 0.29606 q -0.0538,0.19514 -0.0538,0.18841 l -0.33644,0.0538 -0.10767,0.0942 -0.0942,0.20186 q -1.69566,0.31625 -2.15995,0.54503 l -0.10766,0.24224 q 0.0404,0.14803 0.14804,0.3499 l -0.14804,0.1884 -0.0404,0.78055 q -0.23551,0.20859 -0.20186,0.40373 -0.29607,0.46428 -0.29607,1.15062 v 0.17495 l 0.0538,0.0538 -0.0538,0.0942 0.0538,0.0538 0.0404,0.33644 q 0.20187,-0.0673 0.69307,-0.37008 0.43737,-0.26242 0.6998,-0.31625 0.007,-0.0135 0.57867,-0.4441 v -0.0404 l 0.10766,-0.10766 0.0942,-0.3028 0.1884,-0.24223 0.20187,0.0538 0.20186,-0.14804 0.28261,0.29607 q 0,0.22878 -0.13457,0.45083 h -0.40373 l -0.24224,0.24224 -0.0942,0.0404 -0.0942,0.2557 q -0.20186,0.12784 -0.59213,0.39027 -0.52485,0.38354 -1.08334,0.68634 v 0.0538 q -0.36336,0 -0.74017,0.1884 l -0.49793,-0.16149 -0.28261,-0.22878 -0.0538,-0.49793 q -0.20859,-0.0875 -0.48448,-0.28261 v -0.20186 l -0.10766,-0.20187 q 0.14804,-1.02278 0.68634,-1.32557 l 0.0538,-0.0942 q 0,-0.397 0.24224,-0.59213 l -0.0942,-0.24224 0.0942,-0.4441 0.3499,-0.29607 v -0.24223 l -0.14804,-0.10094 q -0.37681,-0.0606 -0.75362,-0.12784 -0.4441,-0.0808 -0.73344,-0.22205 h -0.14804 q -0.25569,0.28933 -0.56522,0.78054 -0.45756,0.71998 -0.51139,0.80073 -0.10766,0.12784 -0.29606,0.39027 -0.0673,0.0269 -0.72671,0.68633 v 0.0942 l -0.14804,0.0942 -0.0942,0.20187 -0.26243,0.20859 h -0.0942 q -0.22878,0.37008 -0.74017,0.68634 -0.15476,0.0538 -0.39027,0.1884 -0.22205,0.0337 -0.48447,0.20187 l -0.14804,0.1884 -0.34989,0.20187 -0.48448,-0.0942 q -0.20859,-0.18168 -0.50466,-0.29607 l -0.0404,-0.0538 -0.49793,-0.18841 v -0.25569 l -0.0942,-0.0942 q -0.0269,-0.1884 -0.0269,-0.26915 0,-0.50466 0.47101,-1.44669 l 0.18841,-0.10766 0.20187,-0.24224 v -0.20187 l 0.34316,-0.28261 h 0.0538 l 0.24224,-0.25569 0.14804,-0.0404 0.0538,-0.10766 q 0.24896,-0.12112 0.74017,-0.39028 l 0.1884,0.0538 q 0.37682,0.53157 0.37682,1.10352 0,0.10766 -0.0269,0.32298 l -0.10766,0.14804 -0.0404,0.39027 -0.10766,0.14803 -0.28261,0.0404 -0.14804,-0.14803 -0.10766,-0.39027 -0.24224,-0.0942 q 0.0269,-0.13458 0.0269,-0.39027 0,-0.17495 -0.0673,-0.44411 l -0.20186,0.0538 -0.44411,0.33644 -0.0942,0.14804 v 0.20186 l -0.20859,0.0942 v 0.24223 q -0.15476,0.12112 -0.29607,0.37009 -0.12112,0.20186 -0.24224,0.41045 l -0.0404,0.3028 0.18841,0.53831 0.29607,0.25569 0.54503,0.14803 q 0.18841,-0.12784 0.59213,-0.34989 v -0.0538 q 0.49121,-0.21533 1.31885,-0.98914 0.10766,-0.12112 0.3499,-0.33644 0.12112,-0.0606 0.37008,-0.20186 0.16822,-0.10766 0.86129,-0.83438 l 0.0942,-0.24223 0.20187,-0.14804 0.24223,-0.5383 0.24224,-0.14804 q 0.0942,-0.20186 0.29607,-0.45083 l -0.0538,-0.0942 h -0.48448 q -0.15476,0.14131 -0.51811,0.22205 -0.40373,0.0875 -0.54504,0.18168 l -0.0135,0.24897 0.0942,0.0404 h 0.4441 l 0.0942,0.14803 -0.0538,0.0942 q -0.26242,0.0134 -0.78054,0.10766 l -0.18841,-0.0538 q -0.15476,-0.17495 -0.26242,-0.20187 v -0.13457 l 0.10766,-0.10767 -0.0538,-0.15476 0.0942,-0.24223 v -0.14804 q 0.1615,-0.0673 0.45084,-0.0404 l 0.14803,-0.10766 h 0.20186 l 0.53831,-0.24224 q 0.0807,0.007 0.36335,0.0336 0.22205,0.0202 0.36336,0.0202 0.0673,0 0.17495,-0.0202 0.13457,-0.0269 0.17495,-0.0336 l 0.24223,-0.39027 0.24897,-0.14803 0.39027,-0.63251 q 0.23551,-0.074 0.63251,-0.42392 0.57868,-0.50466 0.60559,-0.52484 0.37681,-0.27589 0.92858,-0.48448 h 0.0942 l 0.45083,-0.29607 h 0.24224 l 0.49793,-0.24223 h 0.18841 l 0.0538,-0.14804 0.24223,-0.0538 0.0942,-0.0942 -0.57868,0.0942 q -0.18841,-0.074 -0.56522,-0.0404 h -0.47102 l -0.34317,0.13458 h -0.20186 q -0.35663,0 -1.03624,-0.17495 -0.67961,-0.17495 -1.03623,-0.17495 -0.12112,0 -0.34317,0.007 -0.22205,0.007 -0.33644,0.007 l -0.0538,0.0942 q -0.18168,0.0673 -0.47775,0.29607 -0.28934,0.22878 -0.45083,0.29606 l -0.59213,-0.0538 -0.18841,0.10766 -0.0538,0.14804 h -0.0538 l -0.0942,0.24224 h -0.0942 q -0.20859,0 -0.52485,0.074 -0.43064,0.10093 -0.51811,0.11439 -0.24224,-0.074 -0.72671,-0.1884 l -0.10767,-0.14804 h -0.0404 q -0.0807,-0.45756 -0.0807,-0.69979 0,-0.2557 0.17494,-0.63251 l 0.29607,-0.0404 0.0404,-0.14803 q 0.16149,-0.10093 0.61905,-0.20186 0.43064,-0.0942 0.66615,-0.0942 0.60559,0 1.62837,0.24224 l 0.13458,0.0942 h 0.49793 l 0.14803,-0.0942 q 0.12112,-0.26915 0.29607,-0.39027 v -0.0538 h 0.15476 l 0.24224,-0.10093 0.0942,-0.14804 h 0.20187 q 0.12784,-0.11439 0.38354,-0.1884 0.29607,-0.0875 0.397,-0.14804 v -0.0538 q 0.13457,-0.074 0.32298,-0.0538 h 0.12112 l 0.14803,0.10766 0.0942,0.24224 -0.0538,0.14803 -0.24224,0.15477 q -0.34317,-0.11439 -0.37681,-0.11439 -0.24224,0 -0.6527,0.1884 -0.32298,0.16149 -0.63924,0.31626 l -0.24896,0.24223 0.0538,0.0538 q 0.3499,-0.0538 0.30279,-0.0538 0.0471,0 0.56522,0.10767 1.16409,0.24223 1.64183,0.24223 0.0606,0 0.16822,-0.0202 0.13458,-0.0269 0.17495,-0.0336 -0.12784,0.0135 0.40373,0.0135 0.10093,0 0.22205,-0.0404 0.15476,-0.0538 0.2086,-0.0673 0,0 0.43064,0 0.15476,0 0.96895,-0.12112 0.8411,-0.12785 0.96222,-0.17495 l 0.14803,0.0404 z m -2.45601,1.42651 q -0.24897,0 -0.794,0.33644 h -0.15477 q -0.49793,0.21532 -0.78054,0.50466 -0.50466,0.14131 -0.63251,0.4441 l -0.14803,0.0404 v 0.10766 q -0.25569,0.10093 -0.52485,0.47774 -0.29606,0.41719 -0.51139,0.54504 l -0.0404,0.14803 q 0.70653,0.0538 1.07661,0.30953 l 0.48447,0.0404 0.24224,-0.3499 0.4441,-0.20186 0.10766,-0.14804 q -0.0135,-0.0404 -0.0135,-0.13457 0,-0.30953 0.16149,-0.794 0.19513,-0.23551 0.63923,-0.63924 0.0135,-0.11439 0.19514,-0.33644 0.20859,-0.26242 0.24897,-0.3499 z m -4.92549,-1.18427 -0.0404,-0.0942 -0.59214,-0.0538 -0.14803,-0.0942 h -0.68634 q -0.58541,0 -1.04297,0.20187 -0.14803,0.0673 -0.39027,0.39027 l -0.0942,0.0538 -0.0538,0.13458 0.14803,0.25569 0.0538,0.0404 0.0404,0.10766 q 0.24223,0.0404 0.25569,0.0404 0.0807,0 0.28934,-0.0269 0.18841,-0.0202 0.28934,-0.0135 l 0.0538,-0.10766 q 0.59886,-0.12111 0.89493,-0.29606 0.074,-0.0673 0.24224,-0.18841 0.30279,-0.0808 0.78054,-0.3499 z m 11.41206,6.39237 q -0.0807,0.33644 -0.16822,0.66615 -0.12785,0.397 -0.32972,0.59214 v 0.10766 q -0.13457,0.14803 -0.25569,0.33644 v 0.0942 q -0.0404,0.0404 -0.14803,0.2557 l -0.0942,0.0404 -0.13457,0.13457 -0.16149,0.0673 -0.0404,0.0404 q -0.33644,0.17494 -0.80073,0.14803 l -0.0942,0.0538 q -0.13458,-0.0606 -0.39027,-0.20186 v -0.0404 l -0.14803,-0.34989 0.14803,-0.0404 0.0942,-0.10766 0.20187,0.10766 0.0404,0.14804 0.18841,0.0404 q 0.21532,0 0.49793,-0.18841 l 0.14803,-0.25569 v -0.0404 l 0.24897,-0.10766 0.10766,-0.13457 0.0404,-0.3028 h 0.0538 v -0.29607 q -0.14803,-0.22205 -0.10766,-0.76708 h -0.0404 v -0.20186 l -0.0538,-0.0404 -0.0404,-0.14803 -0.27589,0.0404 q -0.33644,0.43065 -0.71325,0.87475 -0.12785,0.0404 -0.24224,0.13457 l -0.14803,0.20187 v 0.0538 l -0.20186,0.13457 q -0.0538,0.11439 -0.18841,0.31626 h -0.0538 l -0.0538,0.0942 h -0.0404 q 0.0135,0.0942 -0.0404,0.26915 -0.074,0.22878 -0.0807,0.26916 -0.0673,0.0807 -0.22878,0.24223 v 0.0942 h -0.0404 v 0.10766 q -0.14803,0.0673 -0.26242,0.38354 -0.074,0.22205 -0.1413,0.45083 -0.074,0.13458 -0.18841,0.43064 l -0.0538,0.0538 q -0.10093,0.26916 -0.16822,0.59887 l -0.16149,0.20186 q -0.0202,0.26915 -0.19514,0.54503 -0.18168,0.29607 -0.42391,0.38355 -0.0807,0.10766 -0.24224,0.29606 l -0.18841,0.0942 -0.14803,0.1884 q -0.23551,0.16822 -0.64597,0.19514 -0.5854,0.0404 -0.67961,0.0606 l -0.0538,-0.0538 h -0.14803 q -0.72671,-0.30953 -0.83437,-0.83437 l -0.14804,-0.14804 v -0.0942 h -0.0404 l -0.0538,-0.14803 0.0538,-0.20187 q 0.20187,-0.22205 0.53831,-0.29607 v -0.0404 h 0.14803 v -0.0538 q 0.20859,-0.0808 0.58541,-0.12785 0.41718,-0.0606 0.59213,-0.11439 l 0.4441,0.0942 -0.10766,0.0673 -0.24224,-0.0134 -0.1884,0.14803 -0.14804,0.0404 -0.12111,0.17495 q -0.26916,0.0404 -0.77382,0.22878 v 0.0942 l -0.20186,0.13457 -0.0404,0.16149 q 0.24223,0.24224 0.34989,0.37682 0.22878,0.074 0.49121,0.20186 h 0.20186 q -0.0135,0 0.74017,-0.18841 l 0.0807,-0.20186 0.1884,-0.18841 q 0.12785,-0.34989 0.45756,-0.75362 l -0.0269,-0.21533 q 0.0606,-0.28933 0.21532,-0.5854 v -0.18841 l 0.16149,-0.28261 v -0.14803 l 0.0538,-0.0404 q 0.0942,-0.31626 0.0942,-0.44411 l 0.21532,-0.28261 0.0269,-0.12111 0.10766,-0.13458 v -0.0942 h -0.0538 q 0.0807,-0.22205 0.18841,-0.68634 h 0.0404 v -0.0538 l 0.0875,-0.0807 v -0.15476 q 0.15477,-0.15476 0.18841,-0.26915 l -0.0538,-0.0404 0.0538,-0.0538 -0.0538,-0.0538 q 0.0942,-0.11439 0.13458,-0.24223 v -0.0404 h -0.0538 v -0.14803 l 0.0538,-0.10766 h 0.0404 l -0.0538,-0.18841 q -0.40373,0.0808 -0.46429,0.0808 -0.0135,0 -0.41718,-0.0404 l -0.18841,0.0538 -0.3499,-0.0538 v -0.0404 h -0.14803 l -0.14804,-0.14803 0.0538,-0.0942 0.29607,-0.10766 q 0.074,0.0538 0.78054,0.0538 l 0.3028,-0.14803 h 0.14803 l 0.0942,-0.0942 h 0.14803 l 0.25569,-0.14804 0.0404,-0.0538 0.0942,-0.0404 q 0.0471,-0.21532 0.20187,-0.64597 0.0606,-0.0538 0.8882,-0.0538 l 0.0404,0.0538 0.0538,0.29607 -0.0942,0.0942 q 0.0404,0.31626 -0.14804,0.59214 h -0.0538 v 0.0538 h -0.0538 q 0.007,0.0606 -0.0202,0.17495 -0.0202,0.11439 -0.0202,0.16149 0,0.0269 0.0404,0.26915 l -0.16149,0.3499 0.30953,-0.16149 q 0.1413,-0.13458 0.32971,-0.43064 0.20859,-0.33644 0.30279,-0.44411 0.14804,-0.11438 0.45083,-0.29606 0.56522,-0.24897 0.83438,-0.20187 l 0.24223,0.14804 v 0.0538 l 0.0538,0.0538 v 0.0404 h 0.0538 q 0.0673,0.0807 0.0673,0.59214 l 0.0404,0.0538 v 0.0404 z m 6.08284,0 q -0.0808,0.33644 -0.16822,0.66615 -0.12785,0.397 -0.32971,0.59214 v 0.10766 q -0.13458,0.14803 -0.2557,0.33644 v 0.0942 q -0.0404,0.0404 -0.14803,0.2557 l -0.0942,0.0404 -0.13458,0.13457 -0.16149,0.0673 -0.0404,0.0404 q -0.33644,0.17494 -0.80073,0.14803 l -0.0942,0.0538 q -0.13457,-0.0606 -0.39027,-0.20186 v -0.0404 l -0.14803,-0.34989 0.14803,-0.0404 0.0942,-0.10766 0.20186,0.10766 0.0404,0.14804 0.18841,0.0404 q 0.21532,0 0.49793,-0.18841 l 0.14804,-0.25569 v -0.0404 l 0.24896,-0.10766 0.10766,-0.13457 0.0404,-0.3028 h 0.0538 v -0.29607 q -0.14804,-0.22205 -0.10766,-0.76708 h -0.0404 v -0.20186 l -0.0538,-0.0404 -0.0404,-0.14803 -0.27588,0.0404 q -0.33644,0.43065 -0.71326,0.87475 -0.12784,0.0404 -0.24223,0.13457 l -0.14804,0.20187 v 0.0538 l -0.20186,0.13457 q -0.0538,0.11439 -0.18841,0.31626 h -0.0538 l -0.0538,0.0942 h -0.0404 q 0.0135,0.0942 -0.0404,0.26915 -0.074,0.22878 -0.0808,0.26916 -0.0673,0.0807 -0.22878,0.24223 v 0.0942 h -0.0404 v 0.10766 q -0.14804,0.0673 -0.26243,0.38354 -0.074,0.22205 -0.1413,0.45083 -0.074,0.13458 -0.18841,0.43064 l -0.0538,0.0538 q -0.10093,0.26916 -0.16822,0.59887 l -0.16149,0.20186 q -0.0202,0.26915 -0.19513,0.54503 -0.18168,0.29607 -0.42392,0.38355 -0.0807,0.10766 -0.24224,0.29606 l -0.1884,0.0942 -0.14804,0.1884 q -0.2355,0.16822 -0.64596,0.19514 -0.58541,0.0404 -0.67961,0.0606 l -0.0538,-0.0538 h -0.14804 q -0.72671,-0.30953 -0.83437,-0.83437 l -0.14803,-0.14804 v -0.0942 h -0.0404 l -0.0538,-0.14803 0.0538,-0.20187 q 0.20187,-0.22205 0.53831,-0.29607 v -0.0404 h 0.14803 v -0.0538 q 0.2086,-0.0808 0.58541,-0.12785 0.41719,-0.0606 0.59213,-0.11439 l 0.44411,0.0942 -0.10766,0.0673 -0.24224,-0.0134 -0.18841,0.14803 -0.14803,0.0404 -0.12112,0.17495 q -0.26915,0.0404 -0.77381,0.22878 v 0.0942 l -0.20187,0.13457 -0.0404,0.16149 q 0.24224,0.24224 0.3499,0.37682 0.22878,0.074 0.4912,0.20186 h 0.20186 q -0.0134,0 0.74017,-0.18841 l 0.0807,-0.20186 0.18841,-0.18841 q 0.12784,-0.34989 0.45755,-0.75362 l -0.0269,-0.21533 q 0.0606,-0.28933 0.21532,-0.5854 v -0.18841 l 0.16149,-0.28261 v -0.14803 l 0.0538,-0.0404 q 0.0942,-0.31626 0.0942,-0.44411 l 0.21532,-0.28261 0.0269,-0.12111 0.10766,-0.13458 v -0.0942 h -0.0538 q 0.0807,-0.22205 0.18841,-0.68634 h 0.0404 v -0.0538 l 0.0875,-0.0807 v -0.15476 q 0.15476,-0.15476 0.1884,-0.26915 l -0.0538,-0.0404 0.0538,-0.0538 -0.0538,-0.0538 q 0.0942,-0.11439 0.13458,-0.24223 v -0.0404 h -0.0538 v -0.14803 l 0.0538,-0.10766 h 0.0404 l -0.0538,-0.18841 q -0.40373,0.0808 -0.46429,0.0808 -0.0134,0 -0.41718,-0.0404 l -0.18841,0.0538 -0.3499,-0.0538 v -0.0404 h -0.14803 l -0.14803,-0.14803 0.0538,-0.0942 0.29606,-0.10766 q 0.074,0.0538 0.78055,0.0538 l 0.30279,-0.14803 h 0.14804 l 0.0942,-0.0942 h 0.14803 l 0.2557,-0.14804 0.0404,-0.0538 0.0942,-0.0404 q 0.0471,-0.21532 0.20187,-0.64597 0.0606,-0.0538 0.8882,-0.0538 l 0.0404,0.0538 0.0538,0.29607 -0.0942,0.0942 q 0.0404,0.31626 -0.14803,0.59214 h -0.0538 v 0.0538 h -0.0538 q 0.007,0.0606 -0.0202,0.17495 -0.0202,0.11439 -0.0202,0.16149 0,0.0269 0.0404,0.26915 l -0.16149,0.3499 0.30952,-0.16149 q 0.14131,-0.13458 0.32971,-0.43064 0.2086,-0.33644 0.3028,-0.44411 0.14803,-0.11438 0.45083,-0.29606 0.56522,-0.24897 0.83437,-0.20187 l 0.24224,0.14804 v 0.0538 l 0.0538,0.0538 v 0.0404 h 0.0538 q 0.0673,0.0807 0.0673,0.59214 l 0.0404,0.0538 v 0.0404 z m 5.00623,-0.49793 -0.0404,0.13457 -0.12112,0.1615 -0.23551,-0.0269 -0.12112,-0.12112 -0.0673,-0.20186 0.0404,-0.26916 -0.14804,-0.14803 q -0.10093,-0.0673 -0.49793,-0.0673 -0.0673,0 -0.17495,0.0269 -0.13457,0.10766 -0.21532,0.14803 l -0.0942,0.16149 q 0.0538,0.18841 0.0538,0.32299 l 0.0673,0.12111 q 0.26915,0.16822 0.52484,0.52485 0.27588,0.397 0.26916,0.67288 l -0.0808,0.19514 -0.12112,0.0942 -0.0269,0.14804 q -0.16822,0.12111 -0.20187,0.40372 l -0.16149,0.0942 -0.0538,0.13457 q -0.0673,0.0471 -0.18841,0.16149 l -0.1884,-0.0269 q -0.20187,0.0673 -0.4441,0.30952 -0.2557,0.0471 -0.43065,0.20187 -0.29607,0.0269 -0.45756,0.0269 0.074,0 -0.30279,-0.0673 -0.26243,-0.0471 -0.3499,-0.0807 -0.12785,-0.0404 -0.33644,-0.17495 -0.14131,-0.20859 -0.33644,-0.37681 -0.0538,-0.13458 -0.0538,-0.40373 0.0673,-0.28261 0.0942,-0.33644 l 0.10766,-0.12785 0.0538,-0.21532 h 0.0538 l 0.0269,-0.20186 0.20186,-0.14804 h 0.14804 q 0.0269,0 0.22877,0.0404 0.31626,0.12785 0.43065,0.5585 l -0.0269,0.16149 0.0471,0.1884 -0.0471,0.18841 -0.17495,0.24224 h -0.14803 l -0.10766,-0.20187 -0.0269,-0.20186 -0.0942,-0.12112 h -0.13457 l -0.13458,0.0808 q -0.074,0.24896 -0.0538,0.47101 l 0.22878,0.21532 q 0.42391,0.12112 0.64596,0.12112 0.0606,0 0.17495,-0.007 0.11439,-0.007 0.16822,-0.007 0.12112,-0.0471 0.28261,-0.22206 0.16822,-0.17494 0.28261,-0.22205 0.0135,-0.0404 0.10766,-0.22878 l -0.0134,-0.16149 0.12111,-0.10766 -0.0673,-0.14803 0.0404,-0.11439 -0.0942,-0.0808 -0.20187,-0.0538 q -0.0404,-0.0606 -0.12112,-0.19513 -0.0807,-0.13458 -0.12112,-0.19514 h -0.0538 l -0.0404,-0.0404 q -0.0942,-0.29607 -0.17495,-0.49793 0,-0.14131 0.0404,-0.28261 0.10766,-0.12785 0.24223,-0.36336 l 0.0135,-0.18841 0.12112,-0.0942 0.0404,-0.14803 h 0.0538 l 0.0942,-0.0942 q 0.16822,-0.0336 0.49793,-0.17494 0.40373,-0.0673 0.49793,-0.0673 0.18841,0 0.5383,0.0538 0.12785,0.074 0.39027,0.20186 0.13458,0.14131 0.31626,0.37682 z m 19.26458,-5.04661 q -0.1413,0.16822 -0.32971,0.73344 -0.18168,0.55849 -0.50466,0.8882 l -0.0404,0.20187 -0.49793,0.48447 -0.18841,0.0538 -0.35663,-0.0538 -0.4441,0.14804 -0.28261,-0.0538 q -0.20859,-0.10767 -0.3499,-0.33644 l -0.14803,-0.0538 -0.14803,-0.14804 q 0.0202,-0.20859 -0.0269,-0.45756 0.0606,-0.0942 0.17495,-0.42391 0.11439,-0.32971 0.0942,-0.40373 l 0.29607,-0.24224 0.49793,-0.14803 0.24224,0.10766 0.0942,0.24224 -0.0404,0.29606 -0.10766,0.14804 -0.0942,0.34317 -0.0942,0.0538 h -0.14803 l -0.0538,-0.14804 -0.14804,-0.0538 -0.14803,0.14804 v 0.0942 l -0.0404,0.0538 -0.0538,0.20186 0.0538,0.0942 0.33644,0.24224 q 0.26915,-0.0135 0.80073,-0.0942 l 0.24223,-0.14803 q 0.37009,-0.43065 0.57868,-1.04297 v -0.0942 l 0.2557,-0.59214 v -0.1884 q 0,-0.0673 -0.10767,-0.49793 l -0.1884,-0.24224 h -0.39027 q -0.18168,0.0942 -1.24483,0.47102 -0.24224,0.28261 -0.67288,0.56522 l -0.0538,0.1884 -0.39028,0.39027 v 0.0538 l -0.20186,0.20187 -0.0942,0.24896 -0.20187,0.0538 -0.0942,0.0942 q -0.10093,0.20859 -0.24224,0.63251 -0.15476,0.10766 -0.36335,0.45755 -0.20187,0.3499 -0.38355,0.47102 l -0.0942,0.2557 -0.14803,0.0404 -0.0538,0.10766 -0.18841,0.14803 q -0.0269,0.16822 -0.16822,0.34317 -0.22878,0.28261 -0.23551,0.29607 -0.39027,0.63251 -0.49793,1.11698 l -0.32298,0.20187 v 0.25569 l -0.10766,0.13458 -0.18841,0.10766 -0.0538,0.14803 -0.397,0.24224 -0.0942,0.18841 v 0.30279 l -0.2557,0.29607 v 0.24224 l -0.0942,0.0538 v 0.0942 l -0.20187,0.14803 -0.0404,0.44411 -0.0538,0.0942 -0.39027,0.20186 h -0.4441 q -0.12785,-0.0336 -0.14804,-0.0538 v -0.39027 q 0.0673,-0.24224 0.14804,-0.5383 l 0.0942,-0.0538 q -0.0269,-0.10766 0.14804,-0.57868 l 0.20186,-0.20859 q 0.0135,-0.0202 0.14803,-1.0497 l -0.0942,-0.0404 q 0.0404,-0.12112 0.14803,-0.36336 l -0.0538,-0.29606 0.0942,-0.17495 0.0538,-1.04297 0.0538,-0.0538 -0.14804,-0.47102 0.0404,-0.43064 h -0.0404 q 0.0135,-0.0807 -0.0538,-0.25569 -0.1413,0.11439 -0.59213,0.74016 v 0.0942 l 0.0538,0.0538 q -0.3499,0.52485 -0.3499,0.78727 l -0.14803,0.20186 v 0.0404 q -0.20187,0.37008 -0.69307,0.794 l -0.0404,0.14803 -0.29607,0.18841 -0.20186,0.4441 -0.14804,0.0538 -0.1884,0.33644 -0.20187,0.10766 q -0.13458,0.37008 -0.5383,0.69307 l -0.18841,0.78054 q -0.15476,0.24896 -0.3499,0.33644 v 0.0538 l -0.14803,0.14803 v 0.0538 l -0.29607,0.18841 -0.34317,0.0538 q -0.0606,-0.0471 -0.14803,-0.14803 l -0.0538,-0.24224 0.24223,-0.20186 0.0538,-0.0942 0.14804,-0.0942 0.15476,-0.29607 -0.0942,-0.10766 0.0404,-0.18841 -0.0404,-0.24223 -0.11439,-0.10766 v -0.0404 l 0.0875,-0.45083 0.32298,-0.43064 q 0.0538,-0.32971 0.0404,-0.49793 0.074,-0.10766 0.24223,-0.29607 v -0.10766 l 0.13458,-0.36336 q -0.0336,-0.33644 0.10766,-0.87474 l -0.0538,-0.3028 0.0538,-0.24224 h -0.0538 v -0.34989 q 0.15476,-0.1615 0.2557,-0.65943 0.0807,-0.40373 0.0807,-0.71325 0,-0.0471 -0.0202,-0.14803 -0.0202,-0.10094 -0.0202,-0.14804 0,-0.007 0.0404,-0.73344 h 0.0538 l 0.0538,-0.14803 0.18841,-0.14804 0.10766,-0.34989 -0.0538,-0.14804 q -0.40373,0.20187 -0.59214,0.20187 l -0.0404,0.0404 -0.25569,0.0538 -0.53831,0.3499 -0.5854,0.0942 q -0.19514,0.18841 -0.59887,0.41046 -0.48447,0.26242 -0.63923,0.37681 v 0.0538 l -0.18841,0.14804 q -0.18168,0.26242 -0.4441,0.83437 l -0.20187,0.1884 0.0538,0.20187 -0.0942,0.14803 v 0.29607 q 0,0.0135 0.0942,0.48447 l 0.29607,-0.0404 q 0.20859,-0.24224 0.63251,-0.3499 v -0.0942 l 0.20186,-0.24224 0.0673,-0.34989 q -0.0807,-0.33645 -0.0673,-0.48448 l 0.14804,-0.14803 q 0.16822,-0.0269 0.29606,-0.10766 v -0.0404 l 0.18841,-0.0538 v -0.0538 q 0.18168,-0.0269 0.53831,-0.0942 l 0.14803,0.20186 h 0.0538 v 0.24224 l -0.14803,0.29607 -0.14804,0.0942 -0.0942,0.24224 h -0.0538 l -0.0942,0.20186 -0.0942,0.0538 q -0.14803,0.3499 -0.40373,0.53831 v 0.0404 q -0.67288,0.43064 -0.96894,0.397 l -0.14804,0.10766 q -0.14803,0.074 -0.40373,0.0404 l -0.41045,-0.24223 q -0.0808,-0.27588 -0.0808,-1.13717 0.0336,-0.12785 0.0538,-0.14804 h 0.0404 q 0.074,-0.14803 0.0538,-0.24223 h 0.0538 l 0.10094,-0.24224 q 0.20186,-0.12785 0.48447,-0.86129 0.13458,-0.10093 0.53831,-0.43737 0.10766,-0.0202 0.24223,-0.0538 0.0942,-0.0673 0.29607,-0.18841 0.0942,-0.0471 0.29607,-0.11439 0.20186,-0.0673 0.29607,-0.11439 l 0.14803,-0.20186 0.0942,-0.0538 q 0.19514,0 0.55849,-0.14131 0.37009,-0.14803 0.57868,-0.1413 0.26915,-0.16149 1.02278,-0.4441 0.0673,-0.10093 0.37681,-0.2557 l 0.32299,0.0538 q 0.19513,0.12785 0.397,0.39027 -0.074,0.41046 -0.14131,0.68634 -0.0606,0.18841 -0.12785,0.38355 -0.0673,0.22205 -0.0606,0.39699 l 0.0404,0.0606 q -0.0471,0.0673 -0.0942,0.32299 -0.0404,0.25569 -0.16149,0.40373 l -0.0135,0.39027 -0.10766,0.0538 q -0.0404,0.48447 -0.0404,0.48447 0,0.0135 0.0202,0.10093 0.0202,0.0875 0.0202,0.10094 -0.0875,0.13457 -0.12784,0.43064 -0.0673,0.43064 -0.074,0.45756 l 0.0404,0.10093 -0.0404,0.0538 q -0.0202,0.21532 0.0269,0.47102 -0.30952,1.25156 -0.30952,1.26501 0.28261,-0.23551 0.32298,-0.39027 l 0.0538,-0.0404 v -0.0538 l 0.24224,-0.29607 0.0538,-0.18841 0.24224,-0.29606 0.14803,-0.0538 0.10093,-0.29607 q 0.12785,-0.11439 0.2557,-0.3499 0.17495,-0.31625 0.22878,-0.38354 v -0.10766 q 0.0942,-0.0269 0.28261,-0.39027 0.17495,-0.33644 0.21532,-0.48448 0.16149,-0.10766 0.50466,-0.53157 0.32971,-0.40373 0.42391,-0.59887 0.0807,-0.23551 0.24224,-0.66615 l 0.0942,-0.0404 0.14803,-0.98241 q 0.22878,-0.0875 0.59886,-0.0538 l 0.14804,0.24224 0.14803,0.10766 0.14803,-0.0538 0.0942,-0.0942 q 0.27588,-0.0336 0.39027,-0.14804 h 0.20186 l 0.13458,0.24224 v 0.20186 l -0.43064,0.0942 v 0.0404 h -0.0538 l -0.59213,0.40373 -0.4912,0.85456 v 0.39027 l 0.11439,0.20186 v 0.0404 l 0.0942,0.24223 v 0.53831 h 0.0538 v 0.20186 q 0,0.0875 -0.0336,0.27588 -0.0336,0.18841 -0.0336,0.27588 0,0.11439 0.0673,0.58541 -0.0135,0.1413 -0.0673,0.41719 l -0.0404,0.0673 -0.0942,0.49794 0.39027,-0.20187 q 0.0875,-0.27588 0.37008,-0.61232 0.22878,-0.28261 0.46429,-0.56522 l 0.0538,-0.0538 0.0404,-0.14803 0.2557,-0.24224 0.0404,-0.29607 q 0.32971,-0.16149 1.43324,-1.91098 v -0.10093 q 0.074,-0.0875 0.48447,-0.49793 0.13458,-0.11439 0.36336,-0.37682 0.12111,-0.22878 0.4441,-0.64596 l 0.32298,-0.0808 0.25569,-0.21532 q 0.28261,-0.0538 0.84111,-0.20187 0.20859,-0.11438 0.67288,-0.26915 0.28261,0.0606 0.4441,0.0269 0.16822,0.0202 0.4441,0.29607 l 0.0942,0.24223 z m 1.55436,5.93481 -0.0606,0.36336 h -0.0404 v 0.0942 l -0.0942,0.10766 v 0.0404 l -0.14803,0.10766 -0.14804,0.24897 -0.14803,0.0942 0.0538,0.0808 q -0.0807,0.16149 -0.16149,0.24224 l -0.0269,0.13457 q -0.11438,0.0673 -0.29606,0.29607 -0.20187,0.24224 -0.30953,0.32298 -0.16149,-0.0202 -0.33644,0.0538 -0.17495,-0.0538 -0.5383,-0.0538 -0.18841,0.0404 -0.24224,0.0673 l -0.25569,-0.0673 q -0.23551,-0.20859 -0.41046,-0.25569 -0.10766,-0.0942 -0.28261,-0.32298 -0.0269,-0.10767 -0.0538,-0.37682 -0.10766,-0.12785 -0.24224,-0.41718 -0.26915,-0.22206 -0.26915,-0.73344 l 0.13457,-0.3499 q 0.13458,-0.13458 0.37682,-0.2557 0.0673,-0.0942 0.10766,-0.1884 l 0.24224,-0.14804 0.24223,-0.33644 0.24897,-0.0942 h 0.14803 l 0.20187,-0.20187 0.24223,-0.0538 0.0942,0.0538 q 0.0606,0.0807 0.10766,0.3499 h 0.0942 l 0.0538,-0.0538 0.24224,-0.0942 0.0942,-0.10766 h 0.24224 l 0.20186,0.10766 0.0942,0.33644 0.24223,0.0942 h 0.0538 q 0.0807,0.12112 0.24224,0.20187 0.13458,0.22205 0.3028,0.71325 z m -0.397,-0.12112 -0.0942,-0.25569 v -0.0404 l -0.10766,-0.0942 -0.0404,-0.10766 -0.20186,-0.0942 -0.14804,0.0942 q -0.0471,0.1413 -0.14803,0.24224 0.0135,0.0471 -0.0404,0.20186 l -0.10766,0.0538 v 0.0404 l -0.14804,0.10767 -0.24224,-0.14804 -0.0404,-0.0538 v -0.39027 l -0.10766,-0.24224 v -0.0538 l -0.0942,-0.0538 v -0.0404 l -0.0942,-0.0538 -0.20186,0.0538 -0.0673,0.12112 -0.22878,0.12112 h -0.0404 q -0.0336,0.12112 -0.2557,0.29606 v 0.0942 l 0.0538,0.0538 v 0.0942 l 0.0269,0.0673 -0.12112,0.28261 v 0.18841 q 0.0404,0.0404 0.0942,0.14803 0,0.0269 -0.007,0.074 -0.007,0.0471 -0.007,0.074 0,0.0202 0.007,0.074 0.007,0.0471 0.007,0.0673 0.0606,0.0942 0.0942,0.30952 l 0.20186,0.14804 0.0942,0.1884 0.24223,0.20187 0.3499,0.0538 q 0.14803,-0.10093 0.45756,-0.24224 l -0.0135,-0.10766 q 0.12112,-0.0875 0.3499,-0.25569 l 0.0404,-0.13458 q 0.12785,-0.10766 0.24224,-0.3028 l 0.20186,-0.0942 q 0.12112,-0.29607 0.0942,-0.68634 z m 4.97259,-0.57868 -0.0269,0.32299 -0.16822,0.0404 q -0.0471,-0.0269 -0.39027,-0.0269 -0.12112,0 -0.30952,-0.0942 -0.13458,-0.21532 -0.21532,-0.30952 l -0.20187,-0.0808 q -0.18841,0.14131 -0.28261,0.3499 l -0.0269,0.18841 -0.14804,0.0942 -0.14803,0.24224 0.0135,0.17494 -0.0538,0.17495 -0.12112,0.0538 0.0135,0.18841 -0.14803,0.15476 q -0.0269,0.2086 -0.13458,0.33644 l -0.14803,0.0538 -0.0269,0.17495 0.0269,0.12112 -0.0538,0.20187 -0.0942,0.13457 -0.0404,0.18841 -0.17495,0.21532 q -0.24223,0.0538 -0.35662,0.0942 -0.14131,-0.10766 -0.40373,-0.10766 -0.0606,0 -0.24224,0.0606 -0.17495,0.0606 -0.24223,0.0471 l -0.0673,-0.13457 0.0135,-0.16149 q 0.11439,-0.0875 0.32299,-0.29607 -0.0336,-0.24224 0.0538,-0.39027 h 0.0538 l 0.0269,-0.12112 0.0673,-0.0269 0.0404,-0.12111 h 0.0538 l 0.0942,-0.24224 q 0.0807,-0.10093 0.26915,-0.26243 0,-0.1413 0.18841,-0.37681 v -0.16149 q 0.18168,-0.39027 0.1413,-0.61905 l -0.10093,-0.18841 -0.13458,-0.0404 q -0.0807,0.0135 -0.25569,0.0135 l -0.14803,0.0942 -0.14804,-0.0807 -0.14803,0.0269 -0.0538,-0.0404 h -0.18841 v -0.10766 q 0.10093,-0.14131 0.29607,-0.18841 l 0.13457,0.0135 q 0.13458,-0.15476 0.40373,-0.21532 h 0.18841 l 0.0538,-0.0404 0.20859,0.0269 q 0.10094,0 0.33644,-0.18841 0.19514,0.074 0.33644,0.16149 0.12112,0.17495 0.14804,0.28261 v 0.0538 l 0.10766,0.22878 h 0.0404 q 0.10766,-0.21532 0.32971,-0.45756 0.26243,-0.27588 0.46429,-0.32298 l 0.14804,0.0538 0.0942,0.13458 q 0.17495,0.074 0.26915,0.21532 v 0.10766 l 0.17495,0.17495 0.18841,0.0538 v 0.0404 z m 5.32249,-4.53521 -0.0942,0.0538 h -0.29606 q -0.14131,-0.0404 -0.13458,-0.0404 -0.14803,0 -0.37681,0.10767 -0.26243,0.11439 -0.38355,0.13457 -0.10093,0.18841 -0.29606,0.41046 0,0.0538 0.007,0.16149 0.007,0.10766 0.007,0.16149 -0.0875,0.22205 -0.25569,0.39027 l -0.0404,0.53831 -0.12112,0.14803 v 0.3499 q -0.19514,0.16822 -0.2557,0.3499 l 0.0135,0.20186 q -0.11439,0.26243 -0.0807,0.38354 -0.14803,0.19514 -0.21532,0.3499 -0.0135,0.12112 -0.10093,0.51812 -0.0807,0.35663 -0.074,0.41046 -0.13457,0.10766 -0.21532,0.14803 l 0.0673,0.14804 -0.10766,0.0942 q -0.0471,0.0807 -0.10766,0.32298 l -0.13458,0.16149 q -0.0404,0.40373 -0.0404,0.40373 l -0.10766,0.19514 q 0,0.45083 -0.33644,0.68634 l -0.20187,0.0538 q -0.16149,0.15476 -0.45083,0.39027 -0.28261,0.10766 -0.5383,0.14803 -0.14804,-0.0875 -0.43064,-0.0538 l -0.10767,-0.0404 -0.24223,-0.2557 v -0.1884 l 0.20186,-0.14804 h 0.0942 l 0.0942,0.0942 0.24223,0.10766 q 0.13458,-0.0606 0.28261,-0.21533 0.15477,-0.15476 0.2557,-0.20186 0.0404,-0.11439 0.10766,-0.3499 0,-0.26915 0.0942,-0.76035 h 0.0538 v -0.10766 l 0.0942,-0.18841 v -0.2557 l 0.15476,-0.1884 q 0.12785,-0.64597 0.39027,-0.88821 0.0135,-0.15476 0.28261,-0.98913 0.0135,-0.13458 0.0807,-0.39027 0.1413,-0.20859 0.36335,-0.64597 l -0.0404,-0.1884 0.0538,-0.24224 0.18841,-0.0538 0.0538,-0.0942 v -0.18841 l 0.0942,-0.0538 0.14803,-0.3499 q 0.16822,-0.19513 0.51139,-0.50466 l 0.1615,0.0135 0.12111,-0.14804 h 0.0942 q 0.13457,-0.1413 0.47774,-0.22878 0.397,-0.0942 0.51139,-0.16149 0.22205,0.0538 0.33644,0.0404 l 0.14804,0.20186 z m 6.05593,0.47774 -0.14804,0.29607 -0.14803,0.10766 -0.0942,0.14804 -0.20186,0.13457 -0.22878,-0.14803 v -0.18841 q -0.25569,-0.11439 -0.81418,-0.28261 -0.41046,0.0404 -0.76709,0.30953 -0.13458,0.22878 -0.12112,0.32298 l -0.0807,0.0404 q -0.0606,0.18168 -0.0538,0.20187 h -0.0942 l -0.0538,0.29606 -0.1884,0.24224 0.0538,0.0404 q -0.14131,0.17495 -0.20187,0.59214 l 0.0538,0.0942 -0.0538,0.10766 v 0.0404 q -0.0404,0.0269 -0.23551,0.41718 -0.1884,0.38354 -0.20859,0.47775 l -0.0942,0.0942 -0.10766,0.28261 0.0134,0.21532 -0.10766,0.0942 -0.0404,0.14803 h -0.0606 l -0.24224,0.29607 q -0.074,0.62578 -0.25569,0.87474 v 0.0538 l -0.13458,0.0942 v 0.35662 q -0.13457,0.17495 -0.36335,0.56522 l 0.0673,0.17495 0.1884,0.13458 0.3499,-0.0942 v -0.0404 q 0.15476,-0.074 0.29607,-0.24224 0.17495,-0.20186 0.24896,-0.25569 l 0.0538,-0.14803 q 0.14131,-0.16822 0.48448,-0.49121 0.0404,-0.0673 0.0942,-0.20186 l 0.10766,-0.0942 h 0.24224 q 0.0606,0.18167 0.0404,0.29606 l -0.1884,0.15477 q -0.12112,0.18167 -0.30953,0.56522 l -0.18841,0.0673 -0.0404,0.20187 -0.14803,0.0404 q -0.11439,0.11439 -0.14804,0.20186 -0.11439,0.0875 -0.35662,0.24224 -0.12785,0.0404 -0.37682,0.18841 -0.20186,0.0404 -0.22878,0.0404 -0.0404,0 -0.15476,-0.0202 -0.10766,-0.0135 -0.16822,-0.007 l -0.24224,-0.13458 -0.13457,-0.16149 -0.0404,-0.28261 q -0.35663,0.23551 -0.56522,0.43064 h -0.24224 l -0.24224,0.0942 q -0.41046,-0.21533 -0.80073,-0.14804 l -0.0404,-0.0942 -0.29607,-0.14804 v -0.20186 l -0.14803,-0.18841 v -0.0538 q 0.0202,-0.46428 0.10766,-1.04296 l -0.0404,-0.13458 0.10766,-0.10766 v -0.0942 l 0.10766,-0.0538 0.0404,-0.18841 0.20187,-0.14803 q 0.13457,-0.30953 0.30952,-0.56522 0.13458,-0.10766 0.41046,-0.29607 l 0.0942,-0.17495 h 0.24224 l 0.14803,-0.0942 q 0.24897,-0.0673 0.794,-0.0942 l 0.0269,0.1615 0.16149,0.0269 v 0.0538 h 0.0538 l 0.0404,0.0942 h 0.0538 v 0.0538 q -0.10766,0.074 -0.35662,0.0606 -0.39028,-0.0202 -0.38355,-0.0202 -0.17495,0.26242 -0.51139,0.55176 v 0.14803 l -0.0538,0.13458 -0.14803,0.0538 0.0404,0.0538 v 0.0404 q -0.0404,0.15477 -0.0404,0.14804 h -0.0538 q 0.007,0.0202 -0.0538,0.25569 l -0.0942,0.0404 0.0538,0.22877 -0.0404,0.20187 -0.10766,0.12785 q -0.11439,0.28933 -0.11439,0.60559 l 0.0875,0.26915 0.0538,0.0538 0.14803,0.0404 0.0942,-0.0404 q 0.12112,0 0.18841,-0.0135 l 0.12112,-0.0673 q 0.10093,0.007 0.3499,-0.16822 0.31625,-0.22878 0.33644,-0.23551 0.16149,-0.29607 0.22878,-0.70653 l 0.0942,-0.14803 q 0.0135,-0.20187 0.0942,-0.60559 l 0.1615,-0.17495 -0.0538,-0.14804 q 0,-0.38354 0.14803,-0.59213 v -0.0942 h 0.0538 q 0.12785,-0.30279 0.0942,-0.4441 0.12785,-0.14803 0.17495,-0.36335 l 0.18841,-0.16822 0.0538,-0.28261 0.14803,-0.20187 q -0.0269,-0.21532 -0.0269,-0.30952 0,-0.14804 0.0807,-0.39027 0.14131,-0.16822 0.3028,-0.49793 0.17495,-0.37009 0.26915,-0.49794 0.14804,-0.0942 0.40373,-0.33644 l 0.20186,-0.0404 0.17495,-0.16822 0.17495,0.0135 0.14804,-0.12112 q 0.11439,0.0135 0.33644,-0.0404 0.22878,-0.0538 0.32298,-0.0538 0.51139,0 0.88147,0.16149 0.43065,-0.0538 0.64597,-0.0942 l 0.14803,0.14804 z"
         id="path16" />
    </g>
  </g>
</svg>
